<svg xmlns="http://www.w3.org/2000/svg" xmlns:xlink="http://www.w3.org/1999/xlink" width="291" zoomAndPan="magnify" viewBox="0 0 218.25 227.999995" height="304" preserveAspectRatio="xMidYMid meet" version="1.0"><defs><filter x="0%" y="0%" width="100%" height="100%" id="13722718f3"><feColorMatrix values="0 0 0 0 1 0 0 0 0 1 0 0 0 0 1 0 0 0 1 0" color-interpolation-filters="sRGB"/></filter><clipPath id="bbdd44a441"><path d="M 0 2 L 217.503906 2 L 217.503906 225 L 0 225 Z M 0 2 " clip-rule="nonzero"/></clipPath><mask id="262b867e79"><g filter="url(#13722718f3)"><rect x="-21.825" width="261.9" fill="#000000" y="-22.8" height="273.599994" fill-opacity="0.5765"/></g></mask><clipPath id="dde594e31a"><path d="M 0.632812 125 L 94 125 L 94 222.980469 L 0.632812 222.980469 Z M 0.632812 125 " clip-rule="nonzero"/></clipPath><clipPath id="273e51e202"><path d="M 14 167 L 94 167 L 94 222.980469 L 14 222.980469 Z M 14 167 " clip-rule="nonzero"/></clipPath><clipPath id="10a5453d76"><rect x="0" width="218" y="0" height="223"/></clipPath></defs><g clip-path="url(#bbdd44a441)"><g mask="url(#262b867e79)"><g transform="matrix(1, 0, 0, 1, 0, 2)"><g clip-path="url(#10a5453d76)"><path fill="#6a79ff" d="M 165.675781 185.960938 C 137.3125 185.960938 102.203125 168.5 74.054688 140.386719 C 53.089844 119.46875 38.039062 95.054688 31.664062 71.648438 C 25.042969 47.332031 28.507812 26.859375 41.410156 13.976562 C 49.914062 5.484375 62.011719 1 76.40625 1 C 104.769531 1 139.875 18.460938 168.027344 46.574219 C 188.988281 67.503906 204.042969 91.910156 210.414062 115.324219 C 217.039062 139.636719 213.574219 160.113281 200.667969 172.988281 C 192.167969 181.476562 180.058594 185.960938 165.675781 185.960938 Z M 76.40625 10.25 C 64.523438 10.25 54.683594 13.800781 47.960938 20.515625 C 37.511719 30.945312 34.898438 48.238281 40.605469 69.214844 C 46.570312 91.09375 60.769531 114.050781 80.601562 133.847656 C 107.09375 160.289062 139.683594 176.714844 165.675781 176.714844 C 177.558594 176.714844 187.394531 173.164062 194.121094 166.449219 C 204.570312 156.015625 207.183594 138.722656 201.476562 117.75 C 195.511719 95.867188 181.308594 72.914062 161.476562 53.113281 C 134.984375 26.671875 102.398438 10.25 76.40625 10.25 Z M 76.40625 10.25 " fill-opacity="1" fill-rule="nonzero"/><path fill="#6a79ff" d="M 137.042969 190.578125 C 101.703125 190.578125 67.699219 173.207031 46.097656 144.140625 C 24.636719 115.25 18.308594 78.960938 28.746094 44.585938 C 29.414062 42.359375 31.65625 40.953125 33.964844 41.367188 C 36.269531 41.777344 37.917969 43.820312 37.796875 46.160156 C 36.527344 72.617188 52.933594 106.226562 80.601562 133.847656 C 108.011719 161.203125 142.15625 177.824219 168.445312 176.585938 C 171.113281 176.277344 172.84375 178.109375 173.242188 180.414062 C 173.640625 182.707031 172.261719 184.945312 170.019531 185.621094 C 159.179688 188.902344 148.074219 190.578125 137.042969 190.578125 Z M 33.09375 76.335938 C 32.851562 98.464844 39.835938 120.179688 53.527344 138.621094 C 73.394531 165.355469 104.613281 181.320312 137.042969 181.320312 C 137.523438 181.320312 138.003906 181.308594 138.46875 181.308594 C 116.699219 174.390625 93.683594 159.976562 74.054688 140.378906 C 54.332031 120.699219 39.992188 97.929688 33.09375 76.335938 Z M 33.09375 76.335938 " fill-opacity="1" fill-rule="nonzero"/><path fill="#6a79ff" d="M 93.246094 125.847656 C 92.0625 125.847656 90.875 125.394531 89.96875 124.5 C 88.160156 122.695312 88.160156 119.765625 89.96875 117.960938 L 187.230469 20.855469 C 189.035156 19.054688 191.972656 19.054688 193.777344 20.855469 C 195.585938 22.660156 195.585938 25.589844 193.777344 27.394531 L 96.515625 124.5 C 95.617188 125.394531 94.433594 125.847656 93.246094 125.847656 Z M 93.246094 125.847656 " fill-opacity="1" fill-rule="nonzero"/><path fill="#6a79ff" d="M 199.769531 28.746094 C 192.109375 28.746094 185.875 22.519531 185.875 14.871094 C 185.875 7.226562 192.109375 1 199.769531 1 C 207.433594 1 213.664062 7.226562 213.664062 14.871094 C 213.664062 22.519531 207.441406 28.746094 199.769531 28.746094 Z M 199.769531 10.25 C 197.222656 10.25 195.140625 12.328125 195.140625 14.871094 C 195.140625 17.417969 197.222656 19.496094 199.769531 19.496094 C 202.320312 19.496094 204.402344 17.417969 204.402344 14.871094 C 204.402344 12.328125 202.328125 10.25 199.769531 10.25 Z M 199.769531 10.25 " fill-opacity="1" fill-rule="nonzero"/><g clip-path="url(#dde594e31a)"><path fill="#6a79ff" d="M 88.613281 222.953125 L 5.246094 222.953125 C 3.691406 222.953125 2.246094 222.175781 1.386719 220.882812 C 0.53125 219.585938 0.382812 217.960938 0.976562 216.527344 L 38.03125 128.671875 C 39.019531 126.332031 41.714844 125.21875 44.097656 126.199219 C 46.449219 127.191406 47.5625 129.898438 46.570312 132.257812 L 12.222656 213.707031 L 82.195312 213.707031 L 65.699219 164.300781 C 64.890625 161.878906 66.207031 159.261719 68.625 158.449219 C 71.0625 157.644531 73.671875 158.957031 74.488281 161.371094 L 93.015625 216.859375 C 93.488281 218.265625 93.246094 219.820312 92.375 221.019531 C 91.503906 222.242188 90.117188 222.953125 88.613281 222.953125 Z M 88.613281 222.953125 " fill-opacity="1" fill-rule="nonzero"/></g><g clip-path="url(#273e51e202)"><path fill="#6a79ff" d="M 88.613281 222.953125 C 88.039062 222.953125 87.457031 222.84375 86.890625 222.621094 L 17.417969 194.875 C 15.613281 194.164062 14.453125 192.390625 14.511719 190.445312 C 14.574219 188.503906 15.835938 186.804688 17.679688 186.191406 L 73.257812 167.695312 C 75.683594 166.902344 78.304688 168.207031 79.121094 170.621094 C 79.925781 173.042969 78.609375 175.660156 76.191406 176.472656 L 32.609375 190.972656 L 90.335938 214.03125 C 92.71875 214.980469 93.867188 217.671875 92.914062 220.03125 C 92.191406 221.851562 90.457031 222.953125 88.613281 222.953125 Z M 88.613281 222.953125 " fill-opacity="1" fill-rule="nonzero"/></g></g></g></g></g></svg>