<svg xmlns="http://www.w3.org/2000/svg" xmlns:xlink="http://www.w3.org/1999/xlink" width="502" zoomAndPan="magnify" viewBox="0 0 376.5 311.25" height="415" preserveAspectRatio="xMidYMid meet" version="1.0"><defs><filter x="0%" y="0%" width="100%" height="100%" id="72684a99aa"><feColorMatrix values="0 0 0 0 1 0 0 0 0 1 0 0 0 0 1 0 0 0 1 0" color-interpolation-filters="sRGB"/></filter><clipPath id="5bbd0e01cb"><path d="M 32 0 L 344 0 L 344 310.5 L 32 310.5 Z M 32 0 " clip-rule="nonzero"/></clipPath><mask id="9ffdf8ef5f"><g filter="url(#72684a99aa)"><rect x="-37.65" width="451.8" fill="#000000" y="-31.125" height="373.499999" fill-opacity="0.6784"/></g></mask><clipPath id="3e269ed524"><path d="M 1 0.179688 L 311.675781 0.179688 L 311.675781 310.5 L 1 310.5 Z M 1 0.179688 " clip-rule="nonzero"/></clipPath><clipPath id="8169b6ba0e"><rect x="0" width="312" y="0" height="311"/></clipPath></defs><path fill="#210080" d="M 373.066406 83.519531 C 320.023438 28.636719 241.621094 0.191406 165.738281 6.902344 C 107.144531 11.644531 50.492188 36.972656 8.027344 77.667969 C 5.320312 80.648438 0.527344 83.191406 1.375 87.902344 C 2.121094 93.054688 9.332031 94.917969 12.496094 90.785156 C 31.601562 71.84375 53.691406 55.914062 77.777344 43.953125 C 124.472656 20.726562 178.605469 13.152344 229.941406 21.996094 C 279.078125 30.265625 325.4375 54.070312 360.917969 89.089844 C 363.046875 91.089844 365.417969 93.714844 368.699219 93.035156 C 372.914062 92.445312 375.519531 87.109375 373.066406 83.519531 Z M 373.066406 83.519531 " fill-opacity="1" fill-rule="nonzero"/><path fill="#210080" d="M 159.734375 77.347656 C 119.128906 83.125 80.65625 102.660156 51.898438 131.9375 C 47.464844 136.378906 53.222656 144.375 58.941406 141.898438 C 66.421875 136.496094 72.367188 129.175781 80.117188 124.078125 C 112.445312 99.171875 153.679688 86.296875 194.417969 88.105469 C 230.691406 89.226562 266.523438 101.984375 295.28125 124.175781 C 302.625 129.074219 308.464844 135.785156 315.320312 141.257812 C 320.496094 145.121094 327.726562 137.769531 323.902344 132.617188 C 282.34375 89.109375 219.09375 68.25 159.734375 77.347656 Z M 159.734375 77.347656 " fill-opacity="1" fill-rule="nonzero"/><path fill="#210080" d="M 166.449219 146.714844 C 141.535156 151.117188 118.007812 163.421875 100.476562 181.703125 C 97.800781 185.3125 100.574219 190.769531 104.84375 191.363281 C 108.585938 192.003906 110.988281 188.683594 113.507812 186.570312 C 134.140625 167.132812 162.730469 156.496094 191.03125 157.597656 C 217.519531 158.191406 243.652344 169.050781 262.710938 187.484375 C 264.589844 188.941406 266.234375 191.242188 268.824219 191.328125 C 273.78125 192.226562 277.773438 185.855469 274.832031 181.777344 C 247.511719 152.949219 205.433594 139.648438 166.449219 146.714844 Z M 166.449219 146.714844 " fill-opacity="1" fill-rule="nonzero"/><path fill="#210080" d="M 177.792969 227.257812 C 163.863281 230.617188 152.167969 241.847656 148.375 255.707031 C 144.445312 267.835938 147.460938 281.578125 155.027344 291.675781 C 164.589844 304.570312 182.261719 311.125 197.820312 306.652344 C 219.144531 301.707031 233.480469 277.578125 227.167969 256.484375 C 222.105469 235.546875 198.628906 221.328125 177.792969 227.257812 Z M 177.792969 227.257812 " fill-opacity="1" fill-rule="nonzero"/><g clip-path="url(#5bbd0e01cb)"><g mask="url(#9ffdf8ef5f)"><g transform="matrix(1, 0, 0, 1, 32, 0.000000000000026117)"><g clip-path="url(#8169b6ba0e)"><g clip-path="url(#3e269ed524)"><path stroke-linecap="round" transform="matrix(5.21668, 0, 0, 5.21668, -0.282653, -0.864643)" fill="none" stroke-linejoin="round" d="M 0.999917 0.999909 L 58.999713 58.999705 " stroke="#000000" stroke-width="1.47" stroke-opacity="1" stroke-miterlimit="4"/><path stroke-linecap="round" transform="matrix(5.21668, 0, 0, 5.21668, -0.282653, -0.864643)" fill="none" stroke-linejoin="round" d="M 58.999713 0.999909 L 0.999917 58.999705 " stroke="#000000" stroke-width="1.47" stroke-opacity="1" stroke-miterlimit="4"/></g></g></g></g></g></svg>