<svg xmlns="http://www.w3.org/2000/svg" xmlns:xlink="http://www.w3.org/1999/xlink" width="944" zoomAndPan="magnify" viewBox="0 0 708.75 567.000005" height="755" preserveAspectRatio="xMidYMid meet" version="1.0"><defs><clipPath id="42cee98669"><path d="M 75.113281 7.691406 L 620.34375 7.691406 L 620.34375 552.925781 L 75.113281 552.925781 Z M 75.113281 7.691406 " clip-rule="nonzero"/></clipPath></defs><g clip-path="url(#42cee98669)"><path fill="#210080" d="M 446.386719 456.3125 L 458.824219 468.746094 C 466.613281 476.671875 477.40625 479.816406 487.65625 478.3125 L 550.378906 540.898438 C 558.03125 548.550781 568.554688 552.925781 579.347656 552.925781 C 590.144531 552.925781 600.664062 548.550781 608.316406 540.898438 L 598.617188 544.863281 L 608.316406 540.898438 C 615.96875 533.246094 620.34375 522.859375 620.34375 511.929688 C 620.34375 500.996094 615.96875 490.613281 608.316406 482.960938 L 545.730469 420.238281 C 547.234375 409.988281 544.09375 399.195312 536.167969 391.40625 L 523.730469 378.96875 C 533.980469 357.515625 539.71875 333.601562 539.71875 308.320312 C 539.71875 217.859375 466.203125 144.34375 375.742188 144.34375 C 285.277344 144.34375 211.761719 217.859375 211.761719 308.320312 C 211.761719 398.785156 285.277344 472.300781 375.742188 472.300781 C 401.019531 472.300781 425.070312 466.5625 446.386719 456.3125 Z M 530.972656 444.289062 L 588.914062 502.226562 C 591.511719 504.824219 592.875 508.238281 592.875 511.929688 C 592.875 515.617188 591.375 519.035156 588.914062 521.632812 C 586.316406 524.226562 582.902344 525.59375 579.210938 525.59375 C 575.523438 525.59375 572.105469 524.089844 569.507812 521.632812 L 511.570312 463.691406 Z M 509.382812 403.292969 C 498.726562 418.1875 485.605469 431.304688 470.710938 441.964844 L 478.089844 449.34375 C 480.550781 451.804688 484.648438 451.804688 487.109375 449.34375 L 516.625 419.828125 C 519.085938 417.367188 519.085938 413.269531 516.625 410.808594 L 509.246094 403.429688 Z M 375.742188 171.671875 C 451.171875 171.671875 512.390625 232.890625 512.390625 308.320312 C 512.390625 383.753906 451.171875 444.972656 375.742188 444.972656 C 300.308594 444.972656 239.089844 383.753906 239.089844 308.320312 C 239.089844 232.890625 300.308594 171.671875 375.742188 171.671875 Z M 375.742188 185.335938 C 307.824219 185.335938 252.757812 240.40625 252.757812 308.320312 C 252.757812 376.238281 307.824219 431.304688 375.742188 431.304688 C 443.65625 431.304688 498.726562 376.238281 498.726562 308.320312 C 498.726562 240.40625 443.65625 185.335938 375.742188 185.335938 Z M 375.742188 212.667969 C 428.488281 212.667969 471.394531 255.574219 471.394531 308.320312 C 471.394531 361.066406 428.488281 403.976562 375.742188 403.976562 C 322.992188 403.976562 280.085938 361.066406 280.085938 308.320312 C 280.085938 255.574219 322.992188 212.667969 375.742188 212.667969 Z M 321.082031 308.320312 C 321.082031 278.121094 345.542969 253.660156 375.742188 253.660156 C 383.257812 253.660156 389.40625 247.511719 389.40625 239.996094 C 389.40625 232.480469 383.257812 226.332031 375.742188 226.332031 C 330.507812 226.332031 293.75 263.089844 293.75 308.320312 C 293.75 315.835938 299.898438 321.988281 307.414062 321.988281 C 314.929688 321.988281 321.082031 315.835938 321.082031 308.320312 Z M 170.765625 267.328125 C 181.5625 267.328125 196.457031 259.128906 210.804688 242.867188 C 237.863281 211.984375 266.421875 151.859375 266.421875 93.917969 C 266.421875 46.773438 223.921875 7.691406 170.765625 7.691406 C 117.609375 7.691406 75.113281 46.773438 75.113281 93.917969 C 75.113281 162.242188 104.082031 218.40625 131.273438 246.007812 C 145.488281 260.496094 160.109375 267.328125 170.765625 267.328125 Z M 170.765625 239.996094 C 167.488281 239.996094 163.933594 237.8125 159.835938 234.804688 C 153.683594 230.296875 147.261719 223.734375 140.976562 215.535156 C 120.753906 188.890625 102.441406 145.300781 102.441406 94.054688 C 102.441406 60.988281 133.460938 35.160156 170.765625 35.160156 C 208.070312 35.160156 239.089844 61.121094 239.089844 94.054688 C 239.089844 145.027344 214.085938 197.773438 190.308594 224.964844 C 185.796875 230.160156 181.289062 234.394531 177.050781 237.265625 C 174.730469 238.902344 172.679688 240.132812 170.765625 240.132812 Z M 170.765625 48.6875 C 140.566406 48.6875 116.105469 73.148438 116.105469 103.347656 C 116.105469 133.546875 140.566406 158.007812 170.765625 158.007812 C 200.964844 158.007812 225.425781 133.546875 225.425781 103.347656 C 225.425781 73.148438 200.964844 48.6875 170.765625 48.6875 Z M 170.765625 76.019531 C 185.796875 76.019531 198.097656 88.316406 198.097656 103.347656 C 198.097656 118.378906 185.796875 130.675781 170.765625 130.675781 C 155.734375 130.675781 143.4375 118.378906 143.4375 103.347656 C 143.4375 88.316406 155.734375 76.019531 170.765625 76.019531 Z M 170.765625 76.019531 " fill-opacity="1" fill-rule="evenodd"/></g></svg>