<svg xmlns="http://www.w3.org/2000/svg" xmlns:xlink="http://www.w3.org/1999/xlink" width="944" zoomAndPan="magnify" viewBox="0 0 708.75 567.000005" height="755" preserveAspectRatio="xMidYMid meet" version="1.0"><defs><clipPath id="d71ad1adbc"><path d="M 139 12.546875 L 625.160156 12.546875 L 625.160156 500 L 139 500 Z M 139 12.546875 " clip-rule="nonzero"/></clipPath><clipPath id="35ff8c5079"><path d="M 293 485 L 358 485 L 358 549.542969 L 293 549.542969 Z M 293 485 " clip-rule="nonzero"/></clipPath></defs><g clip-path="url(#d71ad1adbc)"><path fill="#210080" d="M 614.65625 12.847656 C 582.757812 12.847656 545.652344 19.773438 506.847656 32.761719 C 506.816406 32.769531 506.792969 32.761719 506.761719 32.769531 C 506.742188 32.78125 506.730469 32.792969 506.710938 32.800781 C 503.566406 33.851562 500.425781 34.875 497.261719 36.007812 C 496.949219 36.121094 496.632812 36.253906 496.324219 36.410156 C 488.488281 39.234375 480.789062 42.292969 473.203125 45.488281 C 473.164062 45.5 473.121094 45.53125 473.082031 45.542969 C 426.039062 65.351562 384.265625 91.746094 356.097656 119.917969 L 301.222656 174.789062 L 255.4375 174.789062 C 233.402344 174.789062 212.683594 183.375 197.089844 198.960938 L 142.125 253.925781 C 139.144531 256.90625 138.277344 261.398438 139.9375 265.273438 C 141.558594 269.066406 145.296875 271.519531 149.410156 271.519531 C 149.492188 271.519531 149.574219 271.519531 149.65625 271.519531 L 237.226562 269.410156 C 233.03125 292.363281 235.566406 316.210938 245.390625 337.679688 C 215.582031 368.28125 192.660156 408.644531 211.335938 427.320312 C 216.015625 432.011719 222.0625 434.074219 228.992188 434.074219 C 249.6875 434.074219 278.125 415.53125 301.066406 393.152344 C 315.917969 399.925781 331.84375 403.441406 347.902344 403.441406 C 355.042969 403.441406 362.1875 402.707031 369.257812 401.417969 L 367.144531 489.007812 C 367.042969 493.222656 369.515625 497.070312 373.390625 498.726562 C 374.699219 499.285156 376.082031 499.5625 377.453125 499.5625 C 380.132812 499.5625 382.769531 498.511719 384.738281 496.542969 L 439.707031 441.574219 C 455.289062 425.980469 463.875 405.265625 463.875 383.226562 L 463.875 337.414062 L 518.339844 282.890625 C 546.703125 254.609375 573.179688 212.566406 592.96875 165.195312 C 592.96875 165.183594 592.980469 165.183594 592.980469 165.175781 C 596.289062 157.257812 599.453125 149.238281 602.359375 141.066406 C 603.441406 138.027344 604.410156 135.015625 605.421875 131.996094 C 605.460938 131.914062 605.523438 131.839844 605.566406 131.757812 C 605.617188 131.636719 605.585938 131.5 605.636719 131.367188 C 618.605469 92.40625 625.417969 55.148438 625.253906 23.101562 C 625.199219 17.421875 620.324219 12.847656 614.65625 12.847656 Z M 242.976562 248.648438 L 174.910156 250.289062 L 211.65625 213.535156 C 223.351562 201.847656 238.894531 195.40625 255.429688 195.40625 L 280.597656 195.40625 L 270.972656 205.03125 C 258.3125 217.707031 248.964844 232.683594 242.976562 248.648438 Z M 281.875 307.605469 C 275.136719 311.902344 268.28125 316.945312 261.488281 322.695312 C 255.117188 305.347656 254.191406 286.476562 258.394531 268.441406 C 264.476562 283.25 273.910156 297.257812 281.875 307.605469 Z M 288.636719 376.539062 C 256.171875 409.015625 229.332031 416.160156 225.910156 412.746094 C 222.507812 409.335938 229.660156 382.476562 262.128906 350.019531 C 276.464844 335.683594 291.820312 324.292969 305.355469 317.953125 C 313.332031 314.222656 318.796875 313.214844 321.886719 313.214844 C 323.546875 313.214844 324.527344 313.5 324.84375 313.820312 C 325.753906 314.726562 326.453125 321.035156 320.710938 333.3125 C 314.363281 346.855469 302.964844 362.203125 288.636719 376.539062 Z M 315.960938 377.167969 C 321.722656 370.363281 326.78125 363.492188 331.082031 356.730469 C 341.605469 364.800781 355.714844 374.148438 370.648438 380.15625 C 352.5 384.464844 333.453125 383.566406 315.960938 377.167969 Z M 443.25 383.21875 C 443.25 399.75 436.808594 415.292969 425.121094 426.992188 L 388.378906 463.746094 L 390.027344 395.617188 C 406.011719 389.628906 421.007812 380.3125 433.6875 367.632812 L 443.261719 358.046875 L 443.261719 383.21875 Z M 503.753906 268.304688 L 419.101562 353.050781 C 415.371094 356.78125 411.394531 360.152344 407.238281 363.203125 C 407.21875 363.210938 407.1875 363.210938 407.167969 363.234375 C 394.859375 370.34375 368.753906 360.234375 340.957031 338.207031 C 349.910156 316.664062 345.285156 305.101562 339.410156 299.238281 C 333.554688 293.363281 321.992188 288.714844 300.40625 297.710938 C 279.617188 271.574219 269.207031 246.445312 274.105469 233.324219 C 277.484375 228.5 281.277344 223.882812 285.554688 219.605469 L 312.765625 192.394531 C 312.777344 192.382812 312.777344 192.382812 312.785156 192.375 L 370.671875 134.488281 C 394.386719 110.773438 428.707031 88.304688 467.832031 70.359375 C 471.96875 90.574219 485.128906 113.042969 505.289062 133.179688 C 525.449219 153.3125 547.929688 166.421875 568.132812 170.523438 C 550.195312 209.949219 527.644531 244.476562 503.753906 268.304688 Z M 576.449219 151.09375 C 559.679688 149.15625 538.3125 137.015625 519.863281 118.597656 C 501.402344 100.167969 489.222656 78.738281 487.261719 62.011719 C 492.273438 59.992188 497.320312 58.023438 502.433594 56.167969 C 502.425781 56.3125 502.464844 56.445312 502.453125 56.578125 C 501.949219 66.980469 510.578125 87.355469 530.800781 107.578125 C 551.132812 127.914062 571.613281 136.480469 582.054688 135.914062 C 582.117188 135.914062 582.191406 135.921875 582.25 135.921875 C 580.40625 141.035156 578.457031 146.085938 576.449219 151.09375 Z M 588.847656 115.722656 C 586.210938 115.402344 583.550781 115.175781 580.871094 115.328125 C 577.46875 115.761719 562.585938 110.195312 545.320312 92.933594 C 528.242188 75.863281 523.027344 61.023438 523.046875 57.703125 C 523.214844 54.941406 523.007812 52.199219 522.667969 49.46875 C 551.578125 40.523438 579.777344 34.945312 604.410156 33.730469 C 603.289062 58.34375 597.773438 86.664062 588.847656 115.722656 Z M 588.847656 115.722656 " fill-opacity="1" fill-rule="nonzero"/></g><path fill="#210080" d="M 426.71875 143.136719 C 408.03125 143.136719 390.46875 150.414062 377.265625 163.617188 C 364.054688 176.820312 356.785156 194.382812 356.785156 213.070312 C 356.785156 231.757812 364.054688 249.320312 377.265625 262.523438 C 390.46875 275.738281 408.03125 283.003906 426.71875 283.003906 C 445.40625 283.003906 462.96875 275.726562 476.171875 262.523438 C 489.386719 249.308594 496.652344 231.757812 496.652344 213.070312 C 496.652344 194.382812 489.386719 176.820312 476.171875 163.617188 C 462.96875 150.414062 445.40625 143.136719 426.71875 143.136719 Z M 461.597656 247.960938 C 452.289062 257.277344 439.902344 262.398438 426.71875 262.398438 C 413.535156 262.398438 401.15625 257.265625 391.839844 247.960938 C 382.523438 238.640625 377.402344 226.261719 377.402344 213.082031 C 377.402344 199.910156 382.523438 187.519531 391.839844 178.203125 C 401.148438 168.882812 413.535156 163.761719 426.71875 163.761719 C 439.902344 163.761719 452.28125 168.894531 461.597656 178.203125 C 470.914062 187.519531 476.039062 199.898438 476.039062 213.082031 C 476.039062 226.253906 470.914062 238.640625 461.597656 247.960938 Z M 461.597656 247.960938 " fill-opacity="1" fill-rule="nonzero"/><path fill="#210080" d="M 106.707031 342.011719 L 149.792969 298.925781 C 153.820312 294.898438 153.820312 288.382812 149.792969 284.351562 C 145.761719 280.324219 139.246094 280.324219 135.21875 284.351562 L 92.136719 327.4375 C 88.105469 331.464844 88.105469 337.980469 92.136719 342.011719 C 94.144531 344.019531 96.785156 345.03125 99.421875 345.03125 C 102.058594 345.03125 104.699219 344.019531 106.707031 342.011719 Z M 106.707031 342.011719 " fill-opacity="1" fill-rule="nonzero"/><path fill="#210080" d="M 202.675781 435.691406 C 198.648438 431.660156 192.132812 431.660156 188.101562 435.691406 L 121.425781 502.355469 C 117.398438 506.386719 117.398438 512.898438 121.425781 516.929688 C 123.4375 518.941406 126.074219 519.949219 128.714844 519.949219 C 131.351562 519.949219 133.992188 518.941406 136 516.929688 L 202.675781 450.265625 C 206.695312 446.246094 206.695312 439.71875 202.675781 435.691406 Z M 202.675781 435.691406 " fill-opacity="1" fill-rule="nonzero"/><path fill="#210080" d="M 172.527344 359.367188 C 168.5 355.335938 161.984375 355.335938 157.957031 359.367188 L 101.523438 415.796875 C 97.496094 419.828125 97.496094 426.34375 101.523438 430.371094 C 103.535156 432.382812 106.171875 433.390625 108.8125 433.390625 C 111.449219 433.390625 114.089844 432.382812 116.097656 430.371094 L 172.527344 373.941406 C 176.558594 369.921875 176.558594 363.398438 172.527344 359.367188 Z M 172.527344 359.367188 " fill-opacity="1" fill-rule="nonzero"/><g clip-path="url(#35ff8c5079)"><path fill="#210080" d="M 339.441406 488.574219 L 296.355469 531.660156 C 292.328125 535.6875 292.328125 542.203125 296.355469 546.234375 C 298.367188 548.242188 301.003906 549.253906 303.644531 549.253906 C 306.28125 549.253906 308.921875 548.242188 310.929688 546.234375 L 354.015625 503.148438 C 358.042969 499.121094 358.042969 492.605469 354.015625 488.574219 C 349.984375 484.546875 343.46875 484.546875 339.441406 488.574219 Z M 339.441406 488.574219 " fill-opacity="1" fill-rule="nonzero"/></g><path fill="#210080" d="M 264.425781 465.839844 L 207.996094 522.269531 C 203.964844 526.300781 203.964844 532.8125 207.996094 536.84375 C 210.003906 538.851562 212.644531 539.863281 215.28125 539.863281 C 217.921875 539.863281 220.558594 538.851562 222.570312 536.84375 L 279 480.414062 C 283.03125 476.382812 283.03125 469.867188 279 465.839844 C 274.96875 461.808594 268.457031 461.808594 264.425781 465.839844 Z M 264.425781 465.839844 " fill-opacity="1" fill-rule="nonzero"/></svg>