<svg xmlns="http://www.w3.org/2000/svg" xmlns:xlink="http://www.w3.org/1999/xlink" width="944" zoomAndPan="magnify" viewBox="0 0 708.75 567.000005" height="755" preserveAspectRatio="xMidYMid meet" version="1.0"><defs><clipPath id="b072a60483"><path d="M 217 11.316406 L 492 11.316406 L 492 277 L 217 277 Z M 217 11.316406 " clip-rule="nonzero"/></clipPath><clipPath id="250dc5949e"><path d="M 70.53125 190 L 638.179688 190 L 638.179688 555.046875 L 70.53125 555.046875 Z M 70.53125 190 " clip-rule="nonzero"/></clipPath></defs><g clip-path="url(#b072a60483)"><path fill="#210080" d="M 491.058594 75.84375 C 491.058594 138.386719 480.335938 182.257812 455.226562 222.539062 C 442.636719 242.71875 426.894531 260.839844 408.273438 276.597656 L 387.820312 276.597656 C 410.867188 259.566406 429.890625 239.152344 444.445312 215.8125 C 467.460938 178.898438 477.695312 138.46875 478.324219 81.480469 C 424.417969 74.789062 383.777344 56.917969 354.355469 26.933594 C 324.941406 56.917969 284.300781 74.789062 230.394531 81.480469 C 231.015625 138.46875 241.257812 178.898438 264.265625 215.8125 C 278.75 239.046875 297.679688 259.386719 320.585938 276.363281 L 296.285156 273.007812 C 279.460938 258.105469 265.128906 241.207031 253.492188 222.539062 C 228.371094 182.257812 217.660156 138.386719 217.660156 75.84375 C 217.660156 72.636719 220.0625 69.929688 223.246094 69.542969 L 227.75 68.996094 C 281.980469 62.449219 321.859375 44.269531 349.636719 13.410156 C 350.84375 12.074219 352.558594 11.316406 354.355469 11.316406 C 356.15625 11.316406 357.871094 12.074219 359.078125 13.410156 C 386.855469 44.269531 426.734375 62.449219 480.96875 68.996094 L 485.464844 69.542969 C 488.65625 69.929688 491.058594 72.636719 491.058594 75.84375 " fill-opacity="1" fill-rule="nonzero"/></g><g clip-path="url(#250dc5949e)"><path fill="#210080" d="M 274.433594 311.359375 C 270.253906 315.195312 267.859375 320.632812 267.859375 326.300781 L 267.859375 363.839844 C 267.859375 372.679688 275.046875 379.871094 283.886719 379.871094 C 294.875 379.871094 305.203125 375.59375 312.976562 367.820312 C 320.746094 360.039062 325.023438 349.710938 325.023438 338.71875 L 325.023438 333.777344 L 372.617188 333.777344 C 375.050781 345.804688 380.71875 354.75 388 360.820312 C 391.621094 363.839844 395.644531 366.160156 399.871094 367.792969 C 405.148438 369.839844 410.742188 370.839844 416.277344 370.839844 L 419.132812 370.839844 L 519.628906 444.410156 C 526.699219 449.609375 528.214844 459.554688 523.027344 466.617188 C 519.914062 470.855469 515.097656 473.097656 510.21875 473.097656 C 506.945312 473.097656 503.65625 472.101562 500.828125 470.015625 L 428.304688 416.722656 C 427.050781 415.800781 425.605469 415.367188 424.164062 415.367188 C 422.003906 415.367188 419.875 416.351562 418.511719 418.222656 C 416.210938 421.335938 416.890625 425.730469 420.003906 428.019531 L 478.339844 470.882812 C 485.414062 476.085938 486.925781 486.027344 481.738281 493.089844 C 478.628906 497.324219 473.8125 499.570312 468.933594 499.570312 C 465.660156 499.570312 462.371094 498.578125 459.542969 496.492188 L 401.59375 453.910156 C 400.257812 452.925781 398.703125 452.449219 397.167969 452.449219 C 394.863281 452.449219 392.585938 453.511719 391.121094 455.507812 C 388.667969 458.84375 389.386719 463.535156 392.722656 465.988281 L 429.648438 493.125 C 436.71875 498.324219 438.234375 508.265625 433.046875 515.328125 C 429.929688 519.5625 425.117188 521.8125 420.238281 521.8125 C 416.964844 521.8125 413.671875 520.8125 410.847656 518.726562 L 373.867188 491.554688 C 372.542969 490.582031 371 490.113281 369.476562 490.113281 C 367.191406 490.113281 364.933594 491.164062 363.480469 493.140625 C 362.507812 494.476562 362.035156 496.011719 362.035156 497.546875 C 362.035156 499.835938 363.089844 502.09375 365.070312 503.539062 L 378.835938 513.652344 C 386.105469 519 387.503906 529.378906 381.757812 536.476562 C 378.671875 540.285156 374.121094 542.226562 369.507812 542.226562 C 366.078125 542.226562 362.605469 541.152344 359.667969 538.996094 L 357.9375 537.714844 C 364.351562 525.429688 361.027344 509.917969 349.507812 501.457031 C 344.574219 497.820312 338.722656 495.90625 332.605469 495.90625 C 332.316406 495.90625 332.042969 495.914062 331.765625 495.929688 L 337.007812 488.792969 C 341.910156 482.121094 343.476562 474 342.023438 466.449219 C 341.117188 461.726562 339.019531 457.226562 335.8125 453.433594 C 334.394531 451.738281 332.753906 450.195312 330.890625 448.828125 C 325.957031 445.195312 320.101562 443.28125 313.980469 443.28125 C 308.253906 443.28125 302.707031 445.023438 298.050781 448.148438 C 296.566406 441.691406 292.871094 435.707031 287.125 431.492188 C 282.191406 427.859375 276.339844 425.945312 270.21875 425.945312 C 261.210938 425.945312 252.644531 430.253906 247.265625 437.480469 C 245.457031 432.53125 242.21875 428.050781 237.664062 424.707031 L 236.375 423.761719 C 231.578125 420.226562 225.894531 418.363281 219.945312 418.363281 C 213.710938 418.363281 207.707031 420.492188 202.878906 424.238281 L 179.910156 397.851562 L 260.394531 280.882812 L 301.492188 286.546875 Z M 345.390625 533.902344 L 343.941406 535.863281 C 340.828125 540.097656 336.019531 542.339844 331.128906 542.339844 C 327.871094 542.339844 324.578125 541.34375 321.742188 539.257812 C 314.679688 534.074219 313.15625 524.128906 318.351562 517.054688 L 319.792969 515.097656 C 322.90625 510.859375 327.722656 508.613281 332.605469 508.613281 C 335.863281 508.613281 339.15625 509.609375 341.992188 511.695312 C 349.054688 516.886719 350.578125 526.828125 345.390625 533.902344 Z M 311.109375 502.589844 L 306.886719 508.324219 C 305.707031 509.9375 304.273438 511.261719 302.6875 512.277344 C 300.105469 513.949219 297.109375 514.808594 294.082031 514.808594 C 290.820312 514.808594 287.527344 513.816406 284.691406 511.730469 C 277.628906 506.539062 276.105469 496.597656 281.304688 489.519531 L 301.171875 462.464844 C 304.285156 458.230469 309.105469 455.988281 313.980469 455.988281 C 317.246094 455.988281 320.535156 456.992188 323.375 459.066406 C 325.296875 460.484375 326.8125 462.257812 327.894531 464.222656 C 330.148438 468.347656 330.496094 473.320312 328.71875 477.753906 C 328.230469 478.976562 327.585938 480.164062 326.773438 481.269531 Z M 269.839844 481.855469 C 266.726562 486.089844 261.921875 488.339844 257.03125 488.339844 C 253.765625 488.339844 250.476562 487.339844 247.636719 485.253906 C 240.578125 480.066406 239.050781 470.121094 244.25 463.050781 L 257.410156 445.132812 C 260.523438 440.898438 265.339844 438.652344 270.21875 438.652344 C 273.480469 438.652344 276.769531 439.644531 279.609375 441.730469 C 283.839844 444.847656 286.085938 449.660156 286.085938 454.546875 C 286.085938 457.808594 285.082031 461.101562 283.007812 463.941406 Z M 233.382812 456.027344 C 230.414062 460.054688 225.84375 462.179688 221.214844 462.179688 C 218.113281 462.179688 214.980469 461.226562 212.300781 459.257812 L 211 458.304688 C 204.300781 453.382812 202.847656 443.933594 207.78125 437.222656 C 210.734375 433.199219 215.308594 431.070312 219.945312 431.070312 C 223.046875 431.070312 226.171875 432.019531 228.863281 434 L 230.148438 434.945312 C 236.863281 439.882812 238.300781 449.3125 233.382812 456.027344 Z M 637.089844 367.902344 C 635.316406 365.261719 631.851562 364.347656 629.007812 365.765625 L 557.972656 401.027344 C 553.0625 403.464844 547.023438 401.894531 543.914062 397.382812 L 498.953125 332.039062 L 490.523438 319.789062 L 469.546875 289.304688 L 460.800781 276.597656 L 455.722656 269.203125 C 452.546875 264.597656 453.316406 258.320312 457.519531 254.609375 L 512.683594 205.953125 L 512.738281 206.027344 L 518.136719 201.273438 C 520.546875 199.144531 521.015625 195.558594 519.21875 192.886719 C 517.058594 189.679688 512.570312 189.105469 509.667969 191.671875 L 449.113281 245.082031 C 440.105469 253.035156 438.441406 266.503906 445.261719 276.414062 L 445.386719 276.597656 L 322.285156 276.597656 L 320.585938 276.363281 L 296.285156 273.007812 L 266.875 268.949219 C 269.089844 260.476562 266.503906 251.160156 259.613281 245.082031 L 199.101562 191.703125 C 196.179688 189.128906 191.671875 189.707031 189.492188 192.941406 C 188.75 194.039062 188.386719 195.292969 188.386719 196.539062 C 188.386719 198.339844 189.140625 200.121094 190.582031 201.382812 L 195.949219 206.09375 L 196.042969 205.953125 L 251.207031 254.609375 C 255.40625 258.320312 256.183594 264.597656 253.007812 269.203125 L 164.8125 397.382812 C 161.710938 401.894531 155.667969 403.464844 150.757812 401.027344 L 79.65625 365.796875 C 76.820312 364.402344 73.378906 365.3125 71.613281 367.9375 C 69.476562 371.101562 70.628906 375.433594 74.046875 377.128906 L 145.113281 412.414062 C 148.457031 414.074219 152.046875 414.871094 155.601562 414.871094 C 161.679688 414.871094 167.652344 412.539062 172.128906 408.273438 L 194.804688 434.296875 C 192.445312 439.265625 191.621094 444.804688 192.472656 450.351562 C 193.597656 457.6875 197.503906 464.148438 203.484375 468.546875 L 204.777344 469.496094 C 209.578125 473.023438 215.269531 474.890625 221.214844 474.890625 C 223.707031 474.890625 226.160156 474.535156 228.507812 473.890625 C 228.945312 482.183594 232.9375 490.210938 240.121094 495.492188 C 245.066406 499.125 250.910156 501.042969 257.03125 501.042969 C 259.953125 501.042969 262.820312 500.589844 265.542969 499.726562 C 265.792969 508.242188 269.808594 516.558594 277.175781 521.96875 C 282.117188 525.601562 287.960938 527.515625 294.082031 527.515625 C 296.988281 527.515625 299.859375 527.0625 302.582031 526.210938 C 302.519531 535.078125 306.550781 543.851562 314.226562 549.496094 C 319.167969 553.132812 325.015625 555.046875 331.128906 555.046875 C 338.191406 555.046875 344.976562 552.398438 350.164062 547.785156 L 352.144531 549.238281 C 357.21875 552.960938 363.222656 554.933594 369.507812 554.933594 C 378.1875 554.933594 386.253906 551.121094 391.632812 544.46875 C 396.132812 538.910156 398.34375 532.089844 397.984375 525.039062 L 403.320312 528.96875 C 408.261719 532.597656 414.105469 534.519531 420.238281 534.519531 C 429.296875 534.519531 437.914062 530.152344 443.28125 522.859375 C 447.25 517.449219 449.15625 510.964844 448.785156 504.355469 L 452.015625 506.730469 C 456.960938 510.363281 462.800781 512.277344 468.933594 512.277344 C 477.992188 512.277344 486.613281 507.914062 491.976562 500.617188 C 495.800781 495.410156 497.714844 489.191406 497.515625 482.828125 C 501.441406 484.785156 505.75 485.804688 510.21875 485.804688 C 519.277344 485.804688 527.898438 481.441406 533.265625 474.148438 C 537.785156 467.984375 539.636719 460.445312 538.480469 452.894531 C 537.332031 445.34375 533.308594 438.695312 527.144531 434.171875 L 440.636719 370.839844 L 431.964844 364.484375 L 423.285156 358.132812 L 416.277344 358.132812 C 410.898438 358.132812 405.371094 356.863281 400.449219 354.03125 C 391.746094 349.078125 384.917969 339.324219 384.082031 323.3125 C 384.019531 322.050781 382.984375 321.070312 381.722656 321.070312 L 316.207031 321.070312 C 314.054688 321.070312 312.320312 322.808594 312.320312 324.957031 L 312.320312 338.71875 C 312.320312 346.582031 309.132812 353.683594 303.988281 358.832031 C 298.84375 363.976562 291.742188 367.164062 283.886719 367.164062 C 282.972656 367.164062 282.140625 366.792969 281.539062 366.191406 C 280.933594 365.585938 280.5625 364.757812 280.5625 363.839844 L 280.5625 326.300781 C 280.5625 324.179688 281.453125 322.160156 283.007812 320.730469 L 314.773438 291.613281 C 315.601562 290.859375 316.554688 290.265625 317.59375 289.875 C 318.574219 289.503906 319.636719 289.304688 320.71875 289.304688 L 454.132812 289.304688 L 484.9375 334.074219 L 489.480469 340.679688 L 494.019531 347.277344 L 533.457031 404.585938 C 537.996094 411.203125 545.480469 414.871094 553.121094 414.871094 C 556.683594 414.871094 560.269531 414.074219 563.613281 412.414062 L 634.648438 377.148438 C 638.089844 375.433594 639.242188 371.09375 637.089844 367.902344 " fill-opacity="1" fill-rule="nonzero"/></g><path fill="#210080" d="M 152.53125 384.15625 C 149.167969 381.855469 148.292969 377.222656 150.589844 373.859375 L 151.023438 373.226562 C 153.320312 369.859375 157.957031 368.984375 161.320312 371.285156 C 164.6875 373.585938 165.558594 378.222656 163.261719 381.589844 L 162.828125 382.21875 C 160.53125 385.585938 155.894531 386.457031 152.53125 384.15625 " fill-opacity="1" fill-rule="nonzero"/><path fill="#210080" d="M 166.292969 365.097656 C 162.925781 362.796875 162.054688 358.160156 164.355469 354.796875 L 164.785156 354.164062 C 167.085938 350.796875 171.722656 349.925781 175.082031 352.222656 C 178.449219 354.523438 179.320312 359.15625 177.023438 362.527344 L 176.589844 363.160156 C 174.289062 366.527344 169.65625 367.398438 166.292969 365.097656 " fill-opacity="1" fill-rule="nonzero"/><path fill="#210080" d="M 556.1875 384.15625 C 559.550781 381.855469 560.421875 377.222656 558.125 373.859375 L 557.691406 373.226562 C 555.394531 369.859375 550.757812 368.984375 547.390625 371.285156 C 544.027344 373.585938 543.152344 378.222656 545.453125 381.589844 L 545.886719 382.21875 C 548.183594 385.585938 552.820312 386.457031 556.1875 384.15625 " fill-opacity="1" fill-rule="nonzero"/><path fill="#210080" d="M 542.421875 365.097656 C 545.789062 362.796875 546.660156 358.160156 544.363281 354.796875 L 543.929688 354.164062 C 541.628906 350.796875 536.996094 349.925781 533.632812 352.222656 C 530.265625 354.523438 529.394531 359.15625 531.695312 362.527344 L 532.125 363.160156 C 534.425781 366.527344 539.054688 367.398438 542.421875 365.097656 " fill-opacity="1" fill-rule="nonzero"/><path fill="#210080" d="M 423.59375 125.308594 C 421.0625 122.921875 417.019531 123.171875 414.5625 125.628906 L 350.164062 190.042969 L 313.824219 153.695312 C 311.367188 151.230469 307.324219 150.980469 304.792969 153.371094 C 302.171875 155.835938 302.125 159.964844 304.652344 162.488281 L 345.410156 203.257812 C 345.496094 203.347656 345.597656 203.4375 345.707031 203.527344 C 348.25 205.679688 352.082031 205.679688 354.625 203.527344 C 354.730469 203.4375 354.835938 203.347656 354.921875 203.257812 L 423.730469 134.425781 C 426.257812 131.898438 426.210938 127.777344 423.59375 125.308594 " fill-opacity="1" fill-rule="nonzero"/></svg>