<svg xmlns="http://www.w3.org/2000/svg" xmlns:xlink="http://www.w3.org/1999/xlink" width="944" zoomAndPan="magnify" viewBox="0 0 708.75 567.000005" height="755" preserveAspectRatio="xMidYMid meet" version="1.0"><defs><clipPath id="bef4b06f09"><path d="M 75.167969 274 L 604 274 L 604 556 L 75.167969 556 Z M 75.167969 274 " clip-rule="nonzero"/></clipPath></defs><g clip-path="url(#bef4b06f09)"><path fill="#210080" d="M 83.695312 504.964844 C 79.003906 504.964844 75.167969 508.800781 75.167969 513.492188 C 75.167969 518.179688 79.003906 522.015625 83.695312 522.015625 L 142.984375 522.015625 C 152.367188 522.015625 160.46875 514.34375 160.46875 504.964844 L 160.46875 484.074219 C 164.734375 484.5 169 486.207031 173.691406 487.484375 L 357.09375 554.417969 C 357.09375 554.417969 357.519531 554.417969 357.519531 554.417969 C 360.503906 555.269531 363.0625 555.695312 366.050781 555.695312 C 373.300781 555.695312 380.550781 553.140625 386.523438 548.023438 L 587.410156 380.90625 C 605.75 365.132812 609.164062 336.570312 595.089844 317.8125 C 587.835938 308.003906 577.175781 302.035156 565.234375 300.757812 C 553.289062 299.480469 541.773438 303.316406 532.816406 310.988281 L 434.292969 396.679688 C 436 401.796875 436.851562 407.335938 436.851562 413.304688 C 436.851562 414.585938 436.851562 415.863281 436.425781 417.570312 L 543.90625 325.058594 C 549.453125 320.367188 556.277344 318.238281 563.527344 319.089844 C 570.777344 319.941406 577.175781 323.351562 581.441406 329.320312 C 590.398438 341.257812 588.265625 359.164062 576.320312 368.96875 L 375.433594 536.085938 C 372.019531 539.070312 366.902344 540.347656 362.636719 539.070312 L 181.367188 472.992188 L 179.238281 472.136719 C 173.691406 470.433594 167.292969 468.300781 160.46875 467.449219 L 160.46875 335.289062 L 180.515625 322.925781 C 181.367188 322.5 181.796875 322.5 182.648438 322.074219 C 183.074219 322.074219 183.074219 322.074219 183.5 321.648438 C 184.355469 321.222656 184.78125 321.222656 185.632812 320.796875 C 185.632812 320.796875 186.0625 320.796875 186.0625 320.796875 C 186.488281 320.796875 186.914062 320.367188 187.339844 320.367188 C 187.765625 320.367188 187.765625 320.367188 188.191406 319.941406 C 188.621094 319.941406 188.621094 319.941406 189.046875 319.941406 C 189.472656 319.941406 189.898438 319.941406 190.324219 319.941406 C 190.324219 319.941406 190.324219 319.941406 190.753906 319.941406 C 192.03125 319.941406 192.886719 319.941406 193.738281 319.941406 C 193.738281 319.941406 194.164062 319.941406 194.164062 319.941406 C 194.589844 319.941406 194.589844 319.941406 195.015625 319.941406 C 195.445312 319.941406 195.871094 319.941406 196.296875 320.367188 L 368.183594 379.199219 C 368.609375 379.199219 368.609375 379.199219 369.035156 379.628906 C 385.242188 383.039062 402.304688 397.957031 402.304688 413.734375 C 402.304688 423.113281 398.464844 432.492188 391.214844 438.460938 C 384.816406 444 376.710938 446.558594 368.609375 445.707031 L 262.40625 412.453125 C 257.714844 411.175781 253.023438 413.734375 251.742188 417.996094 C 250.464844 422.683594 253.023438 427.375 257.289062 428.652344 L 364.34375 462.332031 C 364.769531 462.332031 365.195312 462.757812 365.625 462.757812 C 367.757812 463.183594 369.886719 463.183594 372.019531 463.183594 C 383.109375 463.183594 394.199219 458.921875 402.730469 451.675781 C 413.394531 442.296875 419.789062 428.652344 419.789062 414.160156 C 419.789062 389.007812 396.332031 368.542969 373.726562 363.425781 L 201.414062 303.316406 C 200.988281 303.316406 200.5625 302.890625 200.136719 302.890625 C 194.589844 302.035156 189.046875 301.609375 180.515625 304.167969 C 178.382812 305.019531 175.824219 305.875 173.265625 307.152344 C 172.839844 307.152344 172.839844 307.578125 172.414062 307.578125 L 160.46875 314.828125 L 160.46875 291.804688 C 160.46875 282.425781 152.792969 274.753906 142.984375 274.753906 L 83.695312 274.753906 C 79.003906 274.753906 75.167969 278.589844 75.167969 283.277344 C 75.167969 287.96875 79.003906 291.804688 83.695312 291.804688 L 143.410156 291.804688 L 142.984375 504.964844 Z M 83.695312 504.964844 " fill-opacity="1" fill-rule="nonzero"/></g><path fill="#210080" d="M 557.554688 125.113281 C 553.714844 113.179688 540.921875 108.0625 529.832031 103.371094 C 523.007812 100.386719 515.757812 97.402344 513.199219 93.992188 C 510.636719 90.15625 509.785156 82.058594 509.359375 74.808594 C 508.507812 62.871094 507.226562 49.230469 497.417969 41.984375 C 487.605469 34.734375 474.382812 37.71875 462.867188 40.703125 C 455.617188 42.410156 447.515625 44.113281 443.25 42.835938 C 439.410156 41.554688 433.867188 35.589844 429.175781 30.046875 C 421.070312 20.667969 411.6875 10.433594 399.316406 10.433594 C 386.949219 10.433594 377.566406 20.667969 369.886719 30.046875 C 365.195312 35.589844 360.078125 41.554688 355.8125 42.835938 C 351.546875 44.113281 343.445312 42.410156 336.195312 40.703125 C 324.679688 38.144531 311.457031 35.160156 301.644531 41.984375 C 291.835938 49.230469 290.558594 62.871094 289.703125 74.808594 C 289.277344 82.058594 288.425781 90.15625 285.863281 93.992188 C 283.304688 97.402344 275.628906 100.816406 269.230469 103.371094 C 258.140625 108.0625 245.347656 113.179688 241.507812 125.113281 C 237.667969 136.625 244.917969 147.710938 250.890625 157.941406 C 254.304688 164.761719 258.566406 172.011719 258.566406 176.699219 C 258.566406 181.390625 254.304688 188.636719 250.464844 195.03125 C 244.492188 205.261719 237.667969 216.773438 241.082031 227.859375 C 244.917969 239.792969 257.714844 244.910156 268.804688 249.601562 C 275.628906 252.585938 282.878906 255.570312 285.4375 258.980469 C 287.996094 262.816406 288.851562 270.914062 289.277344 278.164062 C 290.128906 290.101562 291.410156 303.742188 301.21875 310.988281 C 311.03125 318.238281 324.25 315.253906 335.765625 312.269531 C 343.019531 310.5625 351.121094 308.859375 355.386719 310.136719 C 359.226562 311.417969 364.769531 317.382812 369.460938 322.925781 C 377.566406 332.304688 386.523438 342.539062 398.890625 342.539062 C 411.261719 342.539062 420.644531 332.304688 428.320312 322.925781 C 433.011719 317.382812 438.132812 311.417969 442.394531 310.136719 C 446.660156 308.859375 454.765625 310.5625 462.015625 312.269531 C 473.53125 314.828125 486.753906 317.8125 496.5625 310.988281 C 506.375 303.742188 507.652344 290.101562 508.507812 278.164062 C 508.933594 270.914062 509.785156 262.816406 512.34375 258.980469 C 514.902344 255.570312 522.582031 252.15625 528.980469 249.601562 C 540.066406 244.910156 552.863281 239.792969 556.703125 227.859375 C 560.539062 216.347656 553.289062 205.261719 547.320312 195.03125 C 543.480469 188.210938 539.214844 181.390625 539.214844 176.699219 C 539.214844 172.011719 543.480469 164.761719 547.320312 158.367188 C 554.144531 148.136719 561.394531 136.625 557.554688 125.113281 Z M 533.671875 149.414062 C 528.550781 157.941406 523.007812 167.320312 523.007812 176.699219 C 523.007812 186.078125 528.550781 195.03125 533.671875 203.984375 C 537.507812 210.804688 542.628906 218.90625 541.347656 222.742188 C 540.066406 227.003906 531.109375 230.84375 523.433594 234.253906 C 514.476562 238.089844 504.667969 241.925781 499.550781 249.601562 C 494.003906 257.273438 493.152344 267.503906 492.296875 277.3125 C 491.445312 285.835938 490.59375 295.214844 487.179688 297.773438 C 483.769531 300.332031 473.957031 298.199219 466.28125 296.496094 C 456.472656 294.363281 446.234375 291.804688 437.277344 294.789062 C 428.746094 297.773438 421.921875 305.019531 415.527344 312.695312 C 410.40625 318.664062 404.007812 325.910156 399.316406 325.910156 C 394.625 325.910156 388.230469 318.664062 382.683594 312.269531 C 376.285156 304.59375 369.460938 296.921875 360.933594 294.363281 C 357.945312 293.511719 354.960938 293.085938 351.546875 293.085938 C 345.152344 293.085938 338.328125 294.789062 331.929688 296.070312 C 324.25 297.773438 314.867188 299.90625 311.03125 297.347656 C 307.617188 294.789062 306.765625 285.410156 305.910156 276.882812 C 305.058594 267.078125 304.207031 256.847656 298.660156 249.171875 C 293.117188 241.925781 283.734375 237.664062 274.777344 233.824219 C 267.097656 230.414062 258.140625 227.003906 256.863281 222.316406 C 255.582031 218.480469 260.699219 209.953125 264.539062 203.558594 C 269.65625 195.03125 275.203125 185.652344 275.203125 176.273438 C 275.203125 166.894531 269.65625 157.941406 264.539062 148.988281 C 260.699219 142.167969 255.582031 134.066406 256.863281 130.230469 C 258.140625 125.96875 267.097656 122.128906 274.777344 118.71875 C 283.734375 114.882812 293.542969 111.046875 298.660156 103.371094 C 304.207031 95.699219 305.058594 85.46875 305.910156 75.660156 C 306.765625 67.136719 307.617188 57.757812 311.03125 55.199219 C 314.441406 52.640625 324.25 54.773438 331.929688 56.476562 C 341.738281 58.609375 351.976562 61.167969 360.933594 58.183594 C 369.460938 55.199219 376.285156 47.953125 382.683594 40.277344 C 388.230469 34.734375 394.625 27.488281 399.316406 27.488281 C 404.007812 27.488281 410.40625 34.734375 415.953125 41.128906 C 422.351562 48.804688 429.175781 56.476562 437.703125 59.035156 C 446.660156 62.019531 456.898438 59.460938 466.707031 57.332031 C 474.382812 55.625 483.769531 53.492188 487.605469 56.050781 C 491.019531 58.609375 491.871094 67.988281 492.726562 76.515625 C 493.578125 86.320312 494.429688 96.550781 499.976562 104.226562 C 505.519531 111.472656 514.902344 115.734375 523.859375 119.574219 C 531.539062 122.984375 540.496094 126.394531 541.773438 131.082031 C 542.628906 134.492188 537.507812 142.59375 533.671875 149.414062 Z M 533.671875 149.414062 " fill-opacity="1" fill-rule="nonzero"/><path fill="#210080" d="M 399.316406 61.59375 C 335.765625 61.59375 284.160156 113.179688 284.160156 176.699219 C 284.160156 240.222656 335.765625 291.804688 399.316406 291.804688 C 462.867188 291.804688 514.476562 240.222656 514.476562 176.699219 C 514.476562 113.179688 462.867188 61.59375 399.316406 61.59375 Z M 399.316406 274.753906 C 345.152344 274.753906 301.21875 230.84375 301.21875 176.699219 C 301.21875 122.558594 345.152344 78.644531 399.316406 78.644531 C 453.484375 78.644531 497.417969 122.558594 497.417969 176.699219 C 497.417969 230.84375 453.484375 274.753906 399.316406 274.753906 Z M 399.316406 274.753906 " fill-opacity="1" fill-rule="nonzero"/><path fill="#210080" d="M 448.792969 132.363281 L 377.992188 203.132812 L 349.84375 174.996094 C 346.429688 171.582031 341.3125 171.582031 337.898438 174.996094 C 334.488281 178.40625 334.488281 183.519531 337.898438 186.929688 L 372.019531 221.035156 C 373.726562 222.742188 375.859375 223.59375 377.992188 223.59375 C 380.125 223.59375 382.257812 222.742188 383.964844 221.035156 L 460.734375 144.300781 C 464.148438 140.890625 464.148438 135.773438 460.734375 132.363281 C 457.324219 128.953125 452.207031 128.953125 448.792969 132.363281 Z M 448.792969 132.363281 " fill-opacity="1" fill-rule="nonzero"/></svg>