<svg xmlns="http://www.w3.org/2000/svg" xmlns:xlink="http://www.w3.org/1999/xlink" width="944" zoomAndPan="magnify" viewBox="0 0 708.75 567.000005" height="755" preserveAspectRatio="xMidYMid meet" version="1.0"><defs><clipPath id="d097e6a0f5"><path d="M 306 446 L 374 446 L 374 545.230469 L 306 545.230469 Z M 306 446 " clip-rule="nonzero"/></clipPath><clipPath id="681f4b62c9"><path d="M 117.753906 20.96875 L 249 20.96875 L 249 176 L 117.753906 176 Z M 117.753906 20.96875 " clip-rule="nonzero"/></clipPath><clipPath id="31185a844d"><path d="M 200 20.96875 L 249 20.96875 L 249 70 L 200 70 Z M 200 20.96875 " clip-rule="nonzero"/></clipPath><clipPath id="7bc0cc121c"><path d="M 274 20.96875 L 406 20.96875 L 406 176 L 274 176 Z M 274 20.96875 " clip-rule="nonzero"/></clipPath><clipPath id="bf5e29b110"><path d="M 357 20.96875 L 406 20.96875 L 406 70 L 357 70 Z M 357 20.96875 " clip-rule="nonzero"/></clipPath><clipPath id="66d8e4f134"><path d="M 431 20.96875 L 562.574219 20.96875 L 562.574219 176 L 431 176 Z M 431 20.96875 " clip-rule="nonzero"/></clipPath><clipPath id="da7c696d56"><path d="M 514 20.96875 L 562.574219 20.96875 L 562.574219 69.328125 L 514 69.328125 Z M 514 20.96875 " clip-rule="nonzero"/></clipPath></defs><path fill="#210080" d="M 311.90625 457.148438 C 310.179688 457.148438 308.472656 456.324219 307.414062 454.792969 L 206.835938 309.589844 C 205.113281 307.113281 205.730469 303.710938 208.210938 301.996094 C 210.6875 300.277344 214.089844 300.894531 215.8125 303.371094 L 316.390625 448.574219 C 318.105469 451.054688 317.488281 454.453125 315.011719 456.171875 C 314.066406 456.832031 312.984375 457.148438 311.90625 457.148438 Z M 368.519531 457.148438 C 367.449219 457.148438 366.363281 456.832031 365.414062 456.171875 C 362.9375 454.453125 362.316406 451.054688 364.039062 448.574219 L 464.617188 303.371094 C 466.339844 300.890625 469.742188 300.277344 472.214844 301.988281 C 474.699219 303.707031 475.3125 307.113281 473.597656 309.589844 L 373.015625 454.792969 C 371.953125 456.324219 370.253906 457.148438 368.519531 457.148438 " fill-opacity="1" fill-rule="evenodd"/><path fill="#210080" d="M 357.855469 436.78125 C 356.78125 436.78125 355.699219 436.464844 354.75 435.808594 C 352.273438 434.089844 351.65625 430.6875 353.371094 428.207031 L 419.800781 332.300781 L 250.199219 332.308594 C 247.183594 332.308594 244.738281 329.863281 244.738281 326.847656 C 244.738281 323.828125 247.183594 321.386719 250.199219 321.386719 L 430.234375 321.386719 C 432.261719 321.386719 434.125 322.511719 435.066406 324.3125 C 436.007812 326.113281 435.875 328.285156 434.722656 329.953125 L 362.347656 434.425781 C 361.289062 435.957031 359.589844 436.78125 357.855469 436.78125 " fill-opacity="1" fill-rule="evenodd"/><path fill="#210080" d="M 209.679688 288.078125 C 206.105469 288.078125 203.207031 290.984375 203.207031 294.550781 C 203.207031 298.117188 206.105469 301.015625 209.679688 301.015625 L 470.753906 301.015625 C 474.320312 301.015625 477.21875 298.117188 477.21875 294.550781 C 477.21875 290.984375 474.320312 288.078125 470.753906 288.078125 Z M 470.753906 311.941406 L 209.679688 311.941406 C 200.085938 311.941406 192.285156 304.144531 192.285156 294.550781 C 192.285156 284.957031 200.089844 277.15625 209.679688 277.15625 L 470.753906 277.15625 C 480.339844 277.15625 488.140625 284.957031 488.140625 294.550781 C 488.140625 304.140625 480.339844 311.941406 470.753906 311.941406 " fill-opacity="1" fill-rule="evenodd"/><g clip-path="url(#d097e6a0f5)"><path fill="#210080" d="M 317.367188 534.363281 L 363.066406 534.363281 L 363.066406 457.148438 L 317.367188 457.148438 Z M 368.527344 545.285156 L 311.90625 545.285156 C 308.890625 545.285156 306.441406 542.84375 306.441406 539.824219 L 306.441406 451.679688 C 306.441406 448.671875 308.890625 446.21875 311.90625 446.21875 L 368.527344 446.21875 C 371.542969 446.21875 373.984375 448.671875 373.984375 451.679688 L 373.984375 539.824219 C 373.984375 542.84375 371.542969 545.285156 368.527344 545.285156 " fill-opacity="1" fill-rule="evenodd"/></g><g clip-path="url(#681f4b62c9)"><path fill="#210080" d="M 133.921875 31.890625 C 131.089844 31.890625 128.78125 34.203125 128.78125 37.035156 L 128.78125 159.066406 C 128.78125 161.902344 131.085938 164.210938 133.921875 164.210938 L 232.597656 164.210938 C 235.429688 164.210938 237.742188 161.902344 237.742188 159.066406 L 237.742188 65.832031 L 203.808594 31.890625 Z M 232.589844 175.132812 L 133.921875 175.132812 C 125.070312 175.132812 117.859375 167.921875 117.859375 159.066406 L 117.859375 37.035156 C 117.859375 28.179688 125.0625 20.96875 133.921875 20.96875 L 206.066406 20.96875 C 207.511719 20.96875 208.902344 21.546875 209.929688 22.570312 L 247.0625 59.710938 C 248.082031 60.738281 248.660156 62.125 248.660156 63.570312 L 248.660156 159.066406 C 248.660156 167.921875 241.449219 175.132812 232.589844 175.132812 " fill-opacity="1" fill-rule="evenodd"/></g><g clip-path="url(#31185a844d)"><path fill="#210080" d="M 243.199219 69.03125 L 212.644531 69.03125 C 206.007812 69.03125 200.609375 63.632812 200.609375 56.992188 L 200.609375 26.429688 C 200.609375 23.414062 203.050781 20.96875 206.066406 20.96875 C 209.082031 20.96875 211.527344 23.414062 211.527344 26.429688 L 211.527344 56.992188 C 211.527344 57.597656 212.039062 58.109375 212.644531 58.109375 L 243.199219 58.109375 C 246.21875 58.109375 248.660156 60.554688 248.660156 63.570312 C 248.660156 66.585938 246.21875 69.03125 243.199219 69.03125 " fill-opacity="1" fill-rule="evenodd"/></g><path fill="#210080" d="M 221.144531 93.738281 L 143.765625 93.738281 C 140.75 93.738281 138.304688 91.292969 138.304688 88.277344 C 138.304688 85.261719 140.75 82.816406 143.765625 82.816406 L 221.144531 82.816406 C 224.160156 82.816406 226.601562 85.261719 226.601562 88.277344 C 226.601562 91.292969 224.152344 93.738281 221.144531 93.738281 " fill-opacity="1" fill-rule="evenodd"/><path fill="#210080" d="M 221.144531 122.085938 L 143.765625 122.085938 C 140.75 122.085938 138.304688 119.636719 138.304688 116.625 C 138.304688 113.605469 140.75 111.15625 143.765625 111.15625 L 221.144531 111.15625 C 224.160156 111.15625 226.601562 113.605469 226.601562 116.625 C 226.601562 119.636719 224.152344 122.085938 221.144531 122.085938 " fill-opacity="1" fill-rule="evenodd"/><path fill="#210080" d="M 221.144531 150.425781 L 143.765625 150.425781 C 140.75 150.425781 138.304688 147.980469 138.304688 144.964844 C 138.304688 141.949219 140.75 139.503906 143.765625 139.503906 L 221.144531 139.503906 C 224.160156 139.503906 226.601562 141.949219 226.601562 144.964844 C 226.601562 147.980469 224.152344 150.425781 221.144531 150.425781 " fill-opacity="1" fill-rule="evenodd"/><g clip-path="url(#7bc0cc121c)"><path fill="#210080" d="M 290.882812 31.890625 C 288.042969 31.890625 285.738281 34.203125 285.738281 37.035156 L 285.738281 159.066406 C 285.738281 161.902344 288.042969 164.210938 290.882812 164.210938 L 389.550781 164.210938 C 392.386719 164.210938 394.695312 161.902344 394.695312 159.066406 L 394.695312 65.832031 L 360.761719 31.890625 Z M 389.550781 175.132812 L 290.875 175.132812 C 282.023438 175.132812 274.8125 167.921875 274.8125 159.066406 L 274.8125 37.035156 C 274.8125 28.179688 282.023438 20.96875 290.875 20.96875 L 363.019531 20.96875 C 364.46875 20.96875 365.855469 21.546875 366.882812 22.570312 L 404.015625 59.710938 C 405.035156 60.738281 405.613281 62.125 405.613281 63.570312 L 405.613281 159.066406 C 405.613281 167.921875 398.410156 175.132812 389.550781 175.132812 " fill-opacity="1" fill-rule="evenodd"/></g><g clip-path="url(#bf5e29b110)"><path fill="#210080" d="M 400.152344 69.03125 L 369.597656 69.03125 C 362.960938 69.03125 357.5625 63.632812 357.5625 56.992188 L 357.5625 26.429688 C 357.5625 23.414062 360.003906 20.96875 363.019531 20.96875 C 366.035156 20.96875 368.480469 23.414062 368.480469 26.429688 L 368.480469 56.992188 C 368.480469 57.597656 368.992188 58.109375 369.597656 58.109375 L 400.152344 58.109375 C 403.171875 58.109375 405.613281 60.554688 405.613281 63.570312 C 405.613281 66.585938 403.171875 69.03125 400.152344 69.03125 " fill-opacity="1" fill-rule="evenodd"/></g><path fill="#210080" d="M 378.097656 93.738281 L 300.726562 93.738281 C 297.707031 93.738281 295.265625 91.292969 295.265625 88.277344 C 295.265625 85.261719 297.707031 82.816406 300.726562 82.816406 L 378.097656 82.816406 C 381.113281 82.816406 383.554688 85.261719 383.554688 88.277344 C 383.554688 91.292969 381.113281 93.738281 378.097656 93.738281 " fill-opacity="1" fill-rule="evenodd"/><path fill="#210080" d="M 378.097656 122.085938 L 300.726562 122.085938 C 297.707031 122.085938 295.265625 119.636719 295.265625 116.625 C 295.265625 113.605469 297.707031 111.15625 300.726562 111.15625 L 378.097656 111.15625 C 381.113281 111.15625 383.554688 113.605469 383.554688 116.625 C 383.554688 119.636719 381.113281 122.085938 378.097656 122.085938 " fill-opacity="1" fill-rule="evenodd"/><path fill="#210080" d="M 378.097656 150.425781 L 300.726562 150.425781 C 297.707031 150.425781 295.265625 147.980469 295.265625 144.964844 C 295.265625 141.949219 297.707031 139.503906 300.726562 139.503906 L 378.097656 139.503906 C 381.113281 139.503906 383.554688 141.949219 383.554688 144.964844 C 383.554688 147.980469 381.113281 150.425781 378.097656 150.425781 " fill-opacity="1" fill-rule="evenodd"/><g clip-path="url(#66d8e4f134)"><path fill="#210080" d="M 447.835938 31.890625 C 444.996094 31.890625 442.691406 34.203125 442.691406 37.035156 L 442.691406 159.066406 C 442.691406 161.902344 444.996094 164.210938 447.835938 164.210938 L 546.507812 164.210938 C 549.339844 164.210938 551.652344 161.902344 551.652344 159.066406 L 551.652344 65.832031 L 517.714844 31.890625 Z M 546.503906 175.132812 L 447.835938 175.132812 C 438.976562 175.132812 431.769531 167.921875 431.769531 159.066406 L 431.769531 37.035156 C 431.769531 28.179688 438.976562 20.96875 447.835938 20.96875 L 519.972656 20.96875 C 521.421875 20.96875 522.8125 21.546875 523.835938 22.570312 L 560.96875 59.710938 C 561.996094 60.738281 562.566406 62.125 562.566406 63.570312 L 562.566406 159.066406 C 562.574219 167.921875 555.363281 175.132812 546.503906 175.132812 " fill-opacity="1" fill-rule="evenodd"/></g><g clip-path="url(#da7c696d56)"><path fill="#210080" d="M 557.105469 69.03125 L 526.554688 69.03125 C 519.914062 69.03125 514.515625 63.632812 514.515625 56.992188 L 514.515625 26.429688 C 514.515625 23.414062 516.957031 20.96875 519.972656 20.96875 C 522.992188 20.96875 525.433594 23.414062 525.433594 26.429688 L 525.433594 56.992188 C 525.433594 57.597656 525.945312 58.109375 526.554688 58.109375 L 557.105469 58.109375 C 560.125 58.109375 562.574219 60.554688 562.574219 63.570312 C 562.574219 66.585938 560.125 69.03125 557.105469 69.03125 " fill-opacity="1" fill-rule="evenodd"/></g><path fill="#210080" d="M 535.050781 93.738281 L 457.679688 93.738281 C 454.660156 93.738281 452.21875 91.292969 452.21875 88.277344 C 452.21875 85.261719 454.660156 82.816406 457.679688 82.816406 L 535.050781 82.816406 C 538.066406 82.816406 540.507812 85.261719 540.507812 88.277344 C 540.507812 91.292969 538.066406 93.738281 535.050781 93.738281 " fill-opacity="1" fill-rule="evenodd"/><path fill="#210080" d="M 535.050781 122.085938 L 457.679688 122.085938 C 454.660156 122.085938 452.21875 119.636719 452.21875 116.625 C 452.21875 113.605469 454.660156 111.15625 457.679688 111.15625 L 535.050781 111.15625 C 538.066406 111.15625 540.507812 113.605469 540.507812 116.625 C 540.507812 119.636719 538.066406 122.085938 535.050781 122.085938 " fill-opacity="1" fill-rule="evenodd"/><path fill="#210080" d="M 535.050781 150.425781 L 457.679688 150.425781 C 454.660156 150.425781 452.21875 147.980469 452.21875 144.964844 C 452.21875 141.949219 454.660156 139.503906 457.679688 139.503906 L 535.050781 139.503906 C 538.066406 139.503906 540.507812 141.949219 540.507812 144.964844 C 540.507812 147.980469 538.066406 150.425781 535.050781 150.425781 " fill-opacity="1" fill-rule="evenodd"/><path fill="#210080" d="M 237.203125 238.378906 C 236.734375 238.378906 236.257812 238.324219 235.785156 238.195312 L 181.847656 223.742188 C 179.460938 223.097656 177.800781 220.933594 177.800781 218.460938 L 177.800781 169.671875 C 177.800781 166.652344 180.242188 164.210938 183.261719 164.210938 C 186.277344 164.210938 188.71875 166.652344 188.71875 169.671875 L 188.71875 214.273438 L 238.605469 227.648438 C 241.523438 228.425781 243.25 231.417969 242.472656 234.335938 C 241.816406 236.773438 239.613281 238.378906 237.203125 238.378906 " fill-opacity="1" fill-rule="evenodd"/><path fill="#210080" d="M 443.230469 238.378906 C 440.820312 238.378906 438.609375 236.773438 437.960938 234.335938 C 437.175781 231.417969 438.910156 228.425781 441.820312 227.648438 L 491.707031 214.273438 L 491.707031 169.671875 C 491.707031 166.652344 494.15625 164.210938 497.167969 164.210938 C 500.183594 164.210938 502.632812 166.652344 502.632812 169.671875 L 502.632812 218.460938 C 502.632812 220.933594 500.972656 223.097656 498.582031 223.742188 L 444.648438 238.195312 C 444.167969 238.324219 443.695312 238.378906 443.230469 238.378906 " fill-opacity="1" fill-rule="evenodd"/><path fill="#210080" d="M 340.214844 238.378906 C 337.195312 238.378906 334.753906 235.9375 334.753906 232.917969 L 334.753906 169.671875 C 334.753906 166.652344 337.195312 164.210938 340.214844 164.210938 C 343.230469 164.210938 345.671875 166.652344 345.671875 169.671875 L 345.671875 232.917969 C 345.671875 235.9375 343.230469 238.378906 340.214844 238.378906 " fill-opacity="1" fill-rule="evenodd"/><path fill="#210080" d="M 220.894531 247.804688 C 219.003906 247.804688 217.171875 246.820312 216.160156 245.070312 C 214.648438 242.457031 215.542969 239.113281 218.15625 237.609375 L 229.734375 230.917969 L 223.054688 219.335938 C 221.542969 216.722656 222.4375 213.382812 225.054688 211.875 C 227.664062 210.363281 231.003906 211.257812 232.511719 213.875 L 241.929688 230.1875 C 243.433594 232.796875 242.539062 236.140625 239.929688 237.648438 L 223.621094 247.070312 C 222.757812 247.5625 221.820312 247.804688 220.894531 247.804688 " fill-opacity="1" fill-rule="evenodd"/><path fill="#210080" d="M 459.539062 247.804688 C 458.613281 247.804688 457.671875 247.5625 456.8125 247.070312 L 440.503906 237.652344 C 439.246094 236.925781 438.332031 235.730469 437.960938 234.335938 C 437.582031 232.929688 437.78125 231.441406 438.503906 230.191406 L 447.917969 213.875 C 449.429688 211.261719 452.769531 210.367188 455.378906 211.875 C 457.988281 213.382812 458.882812 216.722656 457.378906 219.335938 L 450.691406 230.917969 L 462.273438 237.609375 C 464.886719 239.121094 465.78125 242.457031 464.273438 245.070312 C 463.261719 246.820312 461.421875 247.804688 459.539062 247.804688 " fill-opacity="1" fill-rule="evenodd"/><path fill="#210080" d="M 340.214844 238.378906 C 338.820312 238.378906 337.417969 237.847656 336.351562 236.78125 L 323.039062 223.464844 C 320.90625 221.328125 320.90625 217.867188 323.039062 215.734375 C 325.171875 213.601562 328.625 213.601562 330.757812 215.734375 L 340.21875 225.195312 L 349.671875 215.734375 C 351.804688 213.601562 355.265625 213.601562 357.394531 215.734375 C 359.527344 217.867188 359.527344 221.328125 357.394531 223.464844 L 344.078125 236.78125 C 343.011719 237.847656 341.613281 238.378906 340.214844 238.378906 " fill-opacity="1" fill-rule="evenodd"/><path fill="#210080" d="M 292.320312 542.652344 C 289.304688 542.652344 286.859375 540.207031 286.859375 537.191406 L 286.859375 461.84375 C 286.859375 458.828125 289.304688 456.382812 292.320312 456.382812 C 295.335938 456.382812 297.78125 458.828125 297.78125 461.84375 L 297.78125 537.191406 C 297.78125 540.207031 295.335938 542.652344 292.320312 542.652344 " fill-opacity="1" fill-rule="evenodd"/><path fill="#210080" d="M 406.636719 436.707031 C 405.558594 436.707031 404.476562 436.390625 403.53125 435.734375 C 401.046875 434.019531 400.433594 430.617188 402.148438 428.136719 L 467.355469 334.003906 C 469.070312 331.523438 472.476562 330.90625 474.953125 332.625 C 477.429688 334.339844 478.046875 337.746094 476.332031 340.226562 L 411.125 434.359375 C 410.070312 435.890625 408.363281 436.707031 406.636719 436.707031 " fill-opacity="1" fill-rule="evenodd"/></svg>