<svg xmlns="http://www.w3.org/2000/svg" xmlns:xlink="http://www.w3.org/1999/xlink" width="944" zoomAndPan="magnify" viewBox="0 0 708.75 567.000005" height="755" preserveAspectRatio="xMidYMid meet" version="1.0"><defs><clipPath id="fc33d9a282"><path d="M 570 297 L 627 297 L 627 505.476562 L 570 505.476562 Z M 570 297 " clip-rule="nonzero"/></clipPath><clipPath id="00b893e420"><path d="M 342 296 L 400 296 L 400 505.476562 L 342 505.476562 Z M 342 296 " clip-rule="nonzero"/></clipPath><clipPath id="354881c047"><path d="M 493 315 L 550 315 L 550 505.476562 L 493 505.476562 Z M 493 315 " clip-rule="nonzero"/></clipPath><clipPath id="78ad80f882"><path d="M 418 367 L 475 367 L 475 505.476562 L 418 505.476562 Z M 418 367 " clip-rule="nonzero"/></clipPath><clipPath id="a3532f2903"><path d="M 645 396 L 702.574219 396 L 702.574219 505.476562 L 645 505.476562 Z M 645 396 " clip-rule="nonzero"/></clipPath><clipPath id="80aee94da6"><path d="M 6.058594 414 L 55 414 L 55 463 L 6.058594 463 Z M 6.058594 414 " clip-rule="nonzero"/></clipPath><clipPath id="3edb27cbc1"><path d="M 165 60.605469 L 253 60.605469 L 253 215 L 165 215 Z M 165 60.605469 " clip-rule="nonzero"/></clipPath></defs><g clip-path="url(#fc33d9a282)"><path fill="#210080" d="M 626.78125 401.675781 C 626.78125 368.441406 626.726562 335.199219 626.863281 301.960938 C 626.875 298.375 626.175781 297.109375 622.273438 297.171875 C 606.640625 297.410156 591 297.359375 575.367188 297.203125 C 572.109375 297.171875 570.753906 297.699219 570.757812 301.449219 C 570.878906 367.921875 570.878906 434.398438 570.757812 500.875 C 570.757812 504.597656 572.066406 505.167969 575.347656 505.136719 C 590.984375 504.984375 606.625 504.933594 622.257812 505.167969 C 626.132812 505.226562 626.878906 504.015625 626.863281 500.390625 C 626.722656 467.484375 626.78125 434.582031 626.78125 401.675781 Z M 626.78125 401.675781 " fill-opacity="1" fill-rule="nonzero"/></g><g clip-path="url(#00b893e420)"><path fill="#210080" d="M 394.527344 297.007812 C 379.21875 297.167969 363.902344 297.234375 348.597656 296.976562 C 344.3125 296.90625 342.960938 297.867188 342.988281 302.414062 C 343.203125 335.332031 343.101562 368.253906 343.101562 401.171875 C 343.101562 434.257812 343.152344 467.347656 343.035156 500.433594 C 343.019531 503.941406 343.628906 505.40625 347.613281 505.339844 C 363.253906 505.109375 378.902344 505.152344 394.542969 505.316406 C 397.941406 505.347656 399.117188 504.507812 399.113281 500.90625 C 399.007812 434.402344 399.007812 367.894531 399.113281 301.382812 C 399.121094 297.78125 397.898438 296.976562 394.527344 297.007812 Z M 394.527344 297.007812 " fill-opacity="1" fill-rule="nonzero"/></g><g clip-path="url(#354881c047)"><path fill="#210080" d="M 549.953125 320.050781 C 549.953125 316.320312 548.558594 315.753906 545.308594 315.785156 C 530.339844 315.929688 515.359375 316.046875 500.394531 315.734375 C 495.53125 315.632812 493.929688 316.628906 493.984375 321.90625 C 494.28125 351.320312 494.128906 380.742188 494.128906 410.160156 C 494.128906 440.078125 494.195312 469.996094 494.046875 499.914062 C 494.03125 503.957031 495.082031 505.414062 499.335938 505.351562 C 514.632812 505.121094 529.949219 505.191406 545.253906 505.316406 C 548.464844 505.34375 549.960938 504.847656 549.953125 501.054688 C 549.835938 440.71875 549.835938 380.386719 549.953125 320.050781 Z M 549.953125 320.050781 " fill-opacity="1" fill-rule="nonzero"/></g><g clip-path="url(#78ad80f882)"><path fill="#210080" d="M 469.320312 367.03125 C 453.835938 367.257812 438.363281 367.210938 422.886719 367.054688 C 419.46875 367.019531 418.3125 367.929688 418.320312 371.496094 C 418.433594 414.566406 418.433594 457.632812 418.320312 500.699219 C 418.320312 504.273438 419.480469 505.171875 422.890625 505.136719 C 438.375 504.984375 453.851562 504.9375 469.324219 505.160156 C 473.40625 505.222656 474.707031 504.183594 474.667969 499.945312 C 474.453125 478.664062 474.566406 457.378906 474.566406 436.09375 C 474.566406 414.808594 474.449219 393.523438 474.667969 372.242188 C 474.714844 368 473.398438 366.972656 469.320312 367.03125 Z M 469.320312 367.03125 " fill-opacity="1" fill-rule="nonzero"/></g><g clip-path="url(#a3532f2903)"><path fill="#210080" d="M 698.058594 396.617188 C 682.433594 396.78125 666.804688 396.820312 651.183594 396.597656 C 647.144531 396.542969 645.785156 397.53125 645.851562 401.777344 C 646.097656 418.046875 645.949219 434.324219 645.949219 450.597656 C 645.949219 467.214844 646.035156 483.8125 645.886719 500.417969 C 645.851562 504.03125 646.84375 505.386719 650.648438 505.34375 C 666.441406 505.167969 682.230469 505.164062 698.023438 505.335938 C 701.5625 505.367188 702.574219 504.125 702.554688 500.707031 C 702.460938 467.492188 702.464844 434.277344 702.570312 401.0625 C 702.59375 397.527344 701.503906 396.570312 698.058594 396.617188 Z M 698.058594 396.617188 " fill-opacity="1" fill-rule="nonzero"/></g><path fill="#210080" d="M 479.519531 146.042969 C 479.53125 144.882812 479.613281 143.714844 479.554688 142.558594 C 478.835938 128.292969 466.789062 117.382812 453.683594 119.097656 C 434.550781 121.601562 425.976562 138.867188 435.1875 156.339844 L 441.027344 162.382812 C 454.601562 170.648438 466.804688 167.878906 477 154.226562 C 477.839844 151.507812 478.679688 148.78125 479.519531 146.042969 Z M 455.421875 154.597656 C 448.792969 154.683594 443.734375 149.824219 443.570312 143.222656 C 443.40625 136.578125 448.734375 131.015625 455.296875 130.980469 C 461.515625 130.949219 467.160156 136.371094 467.359375 142.574219 C 467.566406 148.945312 462.035156 154.519531 455.421875 154.605469 Z M 455.421875 154.597656 " fill-opacity="1" fill-rule="nonzero"/><g clip-path="url(#80aee94da6)"><path fill="#210080" d="M 24.960938 414.644531 C 14.140625 417.023438 6.066406 427.003906 6.113281 438.351562 C 6.160156 449.789062 14.53125 459.671875 25.925781 461.738281 C 37.320312 463.804688 48.347656 457.796875 52.417969 447.328125 C 56.550781 436.699219 53.695312 427.644531 46.140625 419.652344 L 38.671875 415.433594 C 34.144531 414.355469 29.679688 413.613281 24.960938 414.644531 Z M 42.207031 438.554688 C 41.90625 445.144531 36.285156 450.242188 29.597656 449.984375 C 23.140625 449.738281 18.3125 444.457031 18.46875 437.808594 C 18.617188 431.386719 24.0625 426.089844 30.367188 426.222656 C 36.785156 426.359375 42.492188 432.304688 42.207031 438.554688 Z M 42.207031 438.554688 " fill-opacity="1" fill-rule="nonzero"/></g><path fill="#210080" d="M 650.894531 115.289062 C 654.996094 117.160156 659.160156 118.421875 663.8125 118.320312 C 675.234375 118.078125 684.890625 110.203125 687.09375 98.929688 C 689.148438 88.394531 683.203125 76.742188 673.613281 72.511719 C 662.851562 67.765625 650.296875 71.015625 643.855469 80.390625 C 636.964844 90.421875 638.21875 100.3125 644.738281 109.996094 Z M 663.789062 82.347656 C 670.023438 82.578125 675.199219 88.089844 675.148438 94.453125 C 675.097656 101.292969 669.878906 106.457031 663.199219 106.285156 C 656.734375 106.117188 651.214844 100.417969 651.382812 94.089844 C 651.546875 87.933594 657.683594 82.121094 663.789062 82.347656 Z M 663.789062 82.347656 " fill-opacity="1" fill-rule="nonzero"/><path fill="#210080" d="M 585.984375 224.582031 C 598.28125 216.859375 600.402344 200.980469 590.859375 188.089844 L 584.523438 183.03125 C 574.035156 178.527344 564.378906 179.699219 555.667969 187.273438 L 550.773438 194.226562 C 550.363281 195.824219 549.910156 197.410156 549.546875 199.015625 C 547.324219 208.8125 550.945312 218.417969 558.933594 223.984375 C 567.234375 229.769531 577.367188 229.992188 585.984375 224.582031 Z M 560.867188 204.566406 C 560.859375 198.050781 566.300781 192.671875 572.890625 192.6875 C 579.742188 192.699219 584.859375 197.785156 584.835938 204.554688 C 584.8125 210.898438 578.996094 216.558594 572.660156 216.410156 C 566.636719 216.265625 560.867188 210.472656 560.859375 204.5625 Z M 560.867188 204.566406 " fill-opacity="1" fill-rule="nonzero"/><path fill="#210080" d="M 215.25 318.199219 C 205.097656 315.109375 196.050781 316.945312 188.230469 324.253906 L 183.636719 331.804688 C 183.457031 332.617188 183.308594 333.4375 183.09375 334.238281 C 179.800781 346.472656 185.769531 358.542969 197.335938 363.039062 C 209.195312 367.648438 222.175781 362.746094 227.691406 351.320312 C 232.886719 340.558594 230.144531 331.070312 222.433594 322.578125 Z M 206.121094 352.765625 C 199.785156 352.675781 194.152344 346.867188 194.269531 340.546875 C 194.394531 334.023438 199.992188 328.667969 206.527344 328.820312 C 212.613281 328.964844 218.242188 334.683594 218.234375 340.71875 C 218.230469 346.992188 212.335938 352.855469 206.121094 352.765625 Z M 206.121094 352.765625 " fill-opacity="1" fill-rule="nonzero"/><path fill="#210080" d="M 302.191406 209.214844 C 301.539062 207.894531 300.9375 206.539062 300.230469 205.25 C 295.660156 196.878906 288.769531 192.15625 279.054688 192.125 C 269.238281 192.09375 261.683594 196.378906 257.292969 205.078125 C 252.195312 215.191406 254.460938 224.628906 261.351562 233.214844 L 268.277344 238.085938 C 273.660156 239.773438 279.128906 240.988281 284.722656 239.40625 C 295.589844 236.328125 301.175781 228.65625 303.019531 217.867188 C 302.742188 214.984375 302.464844 212.105469 302.191406 209.222656 Z M 278.773438 228.027344 C 272.199219 227.984375 266.746094 222.527344 266.773438 216.011719 C 266.800781 209.496094 272.3125 204.0625 278.859375 204.082031 C 285.074219 204.101562 290.464844 209.519531 290.566406 215.851562 C 290.683594 222.378906 285.175781 228.070312 278.773438 228.027344 Z M 278.773438 228.027344 " fill-opacity="1" fill-rule="nonzero"/><path fill="#210080" d="M 391.898438 205.5 C 376.519531 197.757812 362.546875 202.535156 355.832031 217.828125 L 354.226562 225.84375 C 354.523438 227.640625 354.730469 229.457031 355.132812 231.226562 C 358.636719 246.601562 376.09375 254.496094 389.941406 247.074219 C 400.847656 241.21875 407.714844 225.96875 397.933594 211.113281 C 395.917969 209.242188 393.910156 207.371094 391.902344 205.5 Z M 378.679688 237.882812 C 372.398438 237.972656 366.625 232.195312 366.660156 225.863281 C 366.699219 219.121094 371.914062 214.007812 378.703125 214.058594 C 385.457031 214.109375 390.597656 219.382812 390.464844 226.109375 C 390.335938 232.242188 384.777344 237.800781 378.679688 237.882812 Z M 378.679688 237.882812 " fill-opacity="1" fill-rule="nonzero"/><path fill="#210080" d="M 126.359375 295.996094 C 123.476562 282.074219 109.972656 273.984375 96.230469 277.71875 C 79.601562 282.238281 71.332031 304.53125 87.433594 319.617188 L 94.679688 323.867188 C 111.894531 326.113281 118.988281 322.492188 126.222656 307.769531 C 126.558594 304.78125 126.890625 301.792969 127.222656 298.808594 C 126.929688 297.871094 126.558594 296.949219 126.359375 295.996094 Z M 114.773438 301.210938 C 114.585938 307.554688 109.167969 312.851562 102.878906 312.851562 C 96.382812 312.851562 90.886719 307.246094 90.980469 300.71875 C 91.074219 294.191406 96.644531 288.757812 103.125 288.90625 C 109.605469 289.054688 114.96875 294.730469 114.773438 301.210938 Z M 114.773438 301.210938 " fill-opacity="1" fill-rule="nonzero"/><path fill="#210080" d="M 268.421875 464.683594 C 233.34375 464.71875 198.265625 464.707031 163.1875 464.644531 C 159.789062 464.636719 158.175781 465.074219 158.136719 469.136719 C 158.09375 473.53125 160.347656 473.390625 163.40625 473.382812 C 180.863281 473.316406 198.316406 473.347656 215.777344 473.347656 C 233.234375 473.347656 250.6875 473.347656 268.144531 473.347656 C 271.082031 473.347656 274.09375 474.105469 274.148438 469.171875 C 274.199219 464.476562 271.609375 464.679688 268.421875 464.683594 Z M 268.421875 464.683594 " fill-opacity="1" fill-rule="nonzero"/><path fill="#210080" d="M 269.09375 481.632812 C 251.304688 481.707031 233.515625 481.671875 215.726562 481.671875 C 198.105469 481.671875 180.484375 481.742188 162.851562 481.609375 C 159.566406 481.582031 158.132812 482.230469 158.164062 485.933594 C 158.199219 489.441406 159.277344 490.394531 162.726562 490.382812 C 198.140625 490.269531 233.550781 490.261719 268.960938 490.363281 C 272.339844 490.375 274.167969 489.84375 274.121094 485.804688 C 274.082031 481.886719 272.121094 481.621094 269.09375 481.632812 Z M 269.09375 481.632812 " fill-opacity="1" fill-rule="nonzero"/><path fill="#210080" d="M 162.328125 420.699219 C 198.101562 420.582031 233.875 420.574219 269.652344 420.679688 C 272.707031 420.679688 274.109375 420.136719 274.105469 416.640625 C 274.101562 413.144531 272.726562 412.570312 269.660156 412.589844 C 251.855469 412.707031 234.050781 412.648438 216.246094 412.648438 C 198.277344 412.648438 180.304688 412.695312 162.335938 412.597656 C 159.480469 412.582031 158.144531 413.105469 158.203125 416.386719 C 158.261719 419.480469 158.898438 420.710938 162.328125 420.699219 Z M 162.328125 420.699219 " fill-opacity="1" fill-rule="nonzero"/><path fill="#210080" d="M 163.21875 437.613281 C 198.496094 437.582031 233.773438 437.582031 269.050781 437.613281 C 271.835938 437.613281 274.089844 437.945312 274.148438 433.71875 C 274.210938 429.1875 271.695312 429.585938 268.78125 429.59375 C 251.308594 429.628906 233.835938 429.632812 216.363281 429.609375 C 198.726562 429.609375 181.089844 429.632812 163.449219 429.589844 C 160.5 429.589844 158.085938 429.234375 158.164062 433.742188 C 158.214844 437.96875 160.445312 437.617188 163.21875 437.613281 Z M 163.21875 437.613281 " fill-opacity="1" fill-rule="nonzero"/><path fill="#210080" d="M 87.433594 319.617188 C 71.179688 351.558594 54.917969 383.496094 38.660156 415.4375 C 41.933594 415.457031 44.289062 417.105469 46.128906 419.65625 C 51.578125 408.859375 57.027344 398.058594 62.480469 387.257812 C 73.199219 366.125 83.929688 344.996094 94.675781 323.867188 C 91.613281 323.558594 88.851562 322.730469 87.433594 319.617188 Z M 87.433594 319.617188 " fill-opacity="1" fill-rule="nonzero"/><path fill="#210080" d="M 38.660156 415.4375 L 46.128906 419.652344 C 44.289062 417.105469 41.9375 415.457031 38.660156 415.4375 Z M 38.660156 415.4375 " fill-opacity="1" fill-rule="nonzero"/><path fill="#210080" d="M 87.433594 319.617188 C 88.851562 322.730469 91.613281 323.558594 94.679688 323.867188 Z M 87.433594 319.617188 " fill-opacity="1" fill-rule="nonzero"/><path fill="#210080" d="M 261.351562 233.214844 L 215.25 318.195312 C 218.648438 318.007812 220.789062 319.894531 222.425781 322.582031 L 268.273438 238.085938 C 265.027344 237.792969 262.722656 236.171875 261.351562 233.214844 Z M 261.351562 233.214844 " fill-opacity="1" fill-rule="nonzero"/><path fill="#210080" d="M 215.25 318.199219 L 222.425781 322.585938 C 220.789062 319.894531 218.652344 318.007812 215.25 318.199219 Z M 215.25 318.199219 " fill-opacity="1" fill-rule="nonzero"/><path fill="#210080" d="M 261.351562 233.214844 C 262.722656 236.167969 265.03125 237.792969 268.277344 238.085938 Z M 261.351562 233.214844 " fill-opacity="1" fill-rule="nonzero"/><path fill="#210080" d="M 590.859375 188.089844 C 610.875 163.824219 630.886719 139.554688 650.894531 115.289062 C 647.636719 114.925781 645.625 113.113281 644.738281 110 C 632.980469 124.089844 621.175781 138.136719 609.488281 152.277344 C 601.078125 162.460938 592.839844 172.777344 584.523438 183.035156 C 587.828125 183.226562 589.59375 185.339844 590.859375 188.089844 Z M 590.859375 188.089844 " fill-opacity="1" fill-rule="nonzero"/><path fill="#210080" d="M 650.894531 115.289062 L 644.738281 110 C 645.625 113.113281 647.636719 114.925781 650.894531 115.289062 Z M 650.894531 115.289062 " fill-opacity="1" fill-rule="nonzero"/><path fill="#210080" d="M 590.859375 188.089844 C 589.59375 185.339844 587.835938 183.226562 584.523438 183.03125 Z M 590.859375 188.089844 " fill-opacity="1" fill-rule="nonzero"/><path fill="#210080" d="M 555.667969 187.273438 C 554.011719 186.507812 552.308594 185.832031 550.714844 184.957031 C 526.972656 172.003906 503.242188 159.039062 479.523438 146.058594 C 480.367188 149.308594 479.265625 151.957031 477.003906 154.25 L 550.777344 194.234375 C 551.074219 190.984375 552.6875 188.644531 555.667969 187.273438 Z M 555.667969 187.273438 " fill-opacity="1" fill-rule="nonzero"/><path fill="#210080" d="M 479.519531 146.042969 C 478.679688 148.773438 477.839844 151.503906 476.996094 154.234375 C 479.257812 151.949219 480.359375 149.300781 479.519531 146.042969 Z M 479.519531 146.042969 " fill-opacity="1" fill-rule="nonzero"/><path fill="#210080" d="M 555.667969 187.273438 C 552.6875 188.644531 551.074219 190.976562 550.769531 194.226562 Z M 555.667969 187.273438 " fill-opacity="1" fill-rule="nonzero"/><path fill="#210080" d="M 188.230469 324.253906 L 127.222656 298.804688 C 127.777344 301.890625 128.589844 305.007812 126.222656 307.765625 C 132.644531 309.429688 138.488281 312.558594 144.5625 315.078125 C 157.648438 320.503906 170.621094 326.21875 183.636719 331.808594 C 183.78125 328.449219 185.042969 325.769531 188.230469 324.253906 Z M 188.230469 324.253906 " fill-opacity="1" fill-rule="nonzero"/><path fill="#210080" d="M 183.636719 331.8125 L 188.230469 324.257812 C 185.042969 325.769531 183.78125 328.449219 183.636719 331.8125 Z M 183.636719 331.8125 " fill-opacity="1" fill-rule="nonzero"/><path fill="#210080" d="M 127.222656 298.804688 C 126.890625 301.792969 126.558594 304.78125 126.222656 307.765625 C 128.589844 305.007812 127.777344 301.894531 127.222656 298.804688 Z M 127.222656 298.804688 " fill-opacity="1" fill-rule="nonzero"/><path fill="#210080" d="M 435.1875 156.347656 C 430.25 161.925781 425.316406 167.507812 420.378906 173.085938 C 410.875 183.886719 401.382812 194.691406 391.898438 205.5 C 395.21875 205.964844 396.808594 208.285156 397.929688 211.113281 L 441.035156 162.394531 C 437.4375 161.964844 435.800781 159.640625 435.1875 156.347656 Z M 435.1875 156.347656 " fill-opacity="1" fill-rule="nonzero"/><path fill="#210080" d="M 435.1875 156.347656 C 435.800781 159.648438 437.4375 161.964844 441.027344 162.390625 Z M 435.1875 156.347656 " fill-opacity="1" fill-rule="nonzero"/><path fill="#210080" d="M 391.898438 205.5 C 393.914062 207.371094 395.921875 209.242188 397.929688 211.113281 C 396.808594 208.289062 395.210938 205.96875 391.898438 205.5 Z M 391.898438 205.5 " fill-opacity="1" fill-rule="nonzero"/><path fill="#210080" d="M 135.359375 413.636719 C 124.71875 413.636719 124.71875 413.636719 124.71875 424.082031 C 124.71875 435.222656 124.71875 435.222656 135.816406 435.222656 C 146.957031 435.222656 146.957031 435.222656 146.957031 425.109375 C 146.953125 413.636719 146.953125 413.636719 135.359375 413.636719 Z M 135.359375 413.636719 " fill-opacity="1" fill-rule="nonzero"/><path fill="#210080" d="M 135.550781 466.902344 C 124.71875 466.902344 124.71875 466.902344 124.71875 477.816406 C 124.71875 488.496094 124.71875 488.496094 135.625 488.496094 C 146.953125 488.496094 146.953125 488.496094 146.953125 478.238281 C 146.953125 466.902344 146.953125 466.902344 135.550781 466.902344 Z M 135.550781 466.902344 " fill-opacity="1" fill-rule="nonzero"/><path fill="#210080" d="M 355.820312 217.828125 L 302.191406 209.214844 C 304.042969 211.945312 303.890625 214.867188 303.019531 217.859375 L 354.214844 225.839844 C 353.328125 222.898438 353.320312 220.109375 355.820312 217.828125 Z M 355.820312 217.828125 " fill-opacity="1" fill-rule="nonzero"/><path fill="#210080" d="M 302.191406 209.214844 C 302.464844 212.097656 302.742188 214.980469 303.019531 217.859375 C 303.902344 214.871094 304.042969 211.945312 302.191406 209.214844 Z M 302.191406 209.214844 " fill-opacity="1" fill-rule="nonzero"/><path fill="#210080" d="M 355.820312 217.828125 C 353.320312 220.109375 353.328125 222.886719 354.214844 225.84375 Z M 355.820312 217.828125 " fill-opacity="1" fill-rule="nonzero"/><path fill="#210080" d="M 102.015625 161.917969 C 89.59375 161.917969 77.058594 161.960938 64.320312 161.960938 C 69.953125 202.933594 90.324219 228.875 125.402344 241.554688 C 157.820312 253.273438 188.796875 248.941406 218.519531 225.167969 C 209.664062 216.378906 201.042969 207.808594 192.535156 199.367188 C 190.085938 201.234375 187.503906 202.894531 184.78125 204.339844 C 182.0625 205.785156 179.242188 207 176.324219 207.984375 C 173.402344 208.96875 170.421875 209.710938 167.382812 210.207031 C 164.34375 210.703125 161.28125 210.949219 158.203125 210.945312 C 129.488281 210.945312 105.765625 189.601562 102.015625 161.917969 Z M 102.015625 161.917969 " fill-opacity="1" fill-rule="nonzero"/><g clip-path="url(#3edb27cbc1)"><path fill="#210080" d="M 214.90625 154.242188 C 214.910156 157.34375 214.660156 160.421875 214.15625 163.484375 C 213.652344 166.542969 212.902344 169.542969 211.90625 172.476562 C 210.910156 175.414062 209.679688 178.25 208.214844 180.984375 C 206.75 183.714844 205.074219 186.3125 203.179688 188.769531 C 211.394531 197.195312 219.621094 205.625 227.859375 214.058594 C 253.421875 186.175781 259.144531 148.003906 243.15625 114.675781 C 228.128906 83.359375 203.378906 65.230469 165.753906 60.671875 C 165.753906 73.476562 165.722656 85.871094 165.714844 98.039062 C 193.480469 101.710938 214.90625 125.472656 214.90625 154.242188 Z M 214.90625 154.242188 " fill-opacity="1" fill-rule="nonzero"/></g><path fill="#210080" d="M 148.636719 98.347656 L 148.636719 62.683594 C 105.746094 62.585938 67.027344 101.1875 66.757812 144.449219 L 102.339844 144.449219 C 106.4375 120.910156 125.058594 102.351562 148.636719 98.347656 Z M 148.636719 98.347656 " fill-opacity="1" fill-rule="nonzero"/></svg>