<svg xmlns="http://www.w3.org/2000/svg" xmlns:xlink="http://www.w3.org/1999/xlink" width="944" zoomAndPan="magnify" viewBox="0 0 708.75 567.000005" height="755" preserveAspectRatio="xMidYMid meet" version="1.0"><defs><clipPath id="0fcce26ddc"><path d="M 227 68 L 559.675781 68 L 559.675781 555.941406 L 227 555.941406 Z M 227 68 " clip-rule="nonzero"/></clipPath><clipPath id="7aa0fd5d9a"><path d="M 149.253906 9.960938 L 482 9.960938 L 482 498 L 149.253906 498 Z M 149.253906 9.960938 " clip-rule="nonzero"/></clipPath></defs><path fill="#210080" d="M 373.984375 263.453125 L 373.984375 205.78125 C 346.328125 210.4375 325.183594 234.519531 325.183594 263.453125 C 325.183594 295.710938 351.457031 321.949219 383.746094 321.949219 C 412.710938 321.949219 436.816406 300.832031 441.476562 273.203125 L 383.746094 273.203125 C 378.355469 273.203125 373.984375 268.835938 373.984375 263.453125 Z M 373.984375 263.453125 " fill-opacity="1" fill-rule="nonzero"/><path fill="#210080" d="M 393.503906 205.78125 L 393.503906 253.703125 L 441.476562 253.703125 C 437.351562 229.246094 417.988281 209.90625 393.503906 205.78125 Z M 393.503906 205.78125 " fill-opacity="1" fill-rule="nonzero"/><path fill="#210080" d="M 188.546875 107.457031 L 208.066406 107.457031 L 208.066406 146.457031 L 188.546875 146.457031 Z M 188.546875 107.457031 " fill-opacity="1" fill-rule="nonzero"/><path fill="#210080" d="M 256.863281 48.960938 L 276.386719 48.960938 L 276.386719 146.457031 L 256.863281 146.457031 Z M 256.863281 48.960938 " fill-opacity="1" fill-rule="nonzero"/><path fill="#210080" d="M 520.386719 39.210938 L 500.867188 39.210938 L 500.867188 507.195312 C 500.867188 512.578125 496.496094 516.941406 491.105469 516.941406 L 188.546875 516.941406 L 188.546875 526.691406 L 520.386719 526.691406 Z M 520.386719 39.210938 " fill-opacity="1" fill-rule="nonzero"/><path fill="#210080" d="M 325.183594 78.210938 L 344.707031 78.210938 L 344.707031 146.457031 L 325.183594 146.457031 Z M 325.183594 78.210938 " fill-opacity="1" fill-rule="nonzero"/><g clip-path="url(#0fcce26ddc)"><path fill="#210080" d="M 539.90625 68.460938 L 539.90625 536.441406 C 539.90625 541.828125 535.535156 546.191406 530.144531 546.191406 L 227.585938 546.191406 L 227.585938 555.941406 L 559.425781 555.941406 L 559.425781 68.460938 Z M 539.90625 68.460938 " fill-opacity="1" fill-rule="nonzero"/></g><g clip-path="url(#7aa0fd5d9a)"><path fill="#210080" d="M 481.34375 9.960938 L 149.503906 9.960938 L 149.503906 497.445312 L 481.34375 497.445312 Z M 305.664062 68.460938 C 305.664062 63.074219 310.035156 58.710938 315.425781 58.710938 L 354.464844 58.710938 C 359.855469 58.710938 364.226562 63.074219 364.226562 68.460938 L 364.226562 156.207031 C 364.226562 161.589844 359.855469 165.957031 354.464844 165.957031 L 315.425781 165.957031 C 310.035156 165.957031 305.664062 161.589844 305.664062 156.207031 Z M 237.34375 39.210938 C 237.34375 33.828125 241.714844 29.460938 247.105469 29.460938 L 286.144531 29.460938 C 291.535156 29.460938 295.90625 33.828125 295.90625 39.210938 L 295.90625 156.207031 C 295.90625 161.589844 291.535156 165.957031 286.144531 165.957031 L 247.105469 165.957031 C 241.714844 165.957031 237.34375 161.589844 237.34375 156.207031 Z M 286.144531 214.703125 C 286.144531 220.089844 281.773438 224.453125 276.386719 224.453125 L 217.824219 224.453125 C 212.433594 224.453125 208.066406 220.089844 208.066406 214.703125 C 208.066406 209.320312 212.433594 204.953125 217.824219 204.953125 L 276.386719 204.953125 C 281.773438 204.953125 286.144531 209.320312 286.144531 214.703125 Z M 169.023438 97.707031 C 169.023438 92.324219 173.394531 87.957031 178.785156 87.957031 L 217.824219 87.957031 C 223.214844 87.957031 227.585938 92.324219 227.585938 97.707031 L 227.585938 156.207031 C 227.585938 161.589844 223.214844 165.957031 217.824219 165.957031 L 178.785156 165.957031 C 173.394531 165.957031 169.023438 161.589844 169.023438 156.207031 Z M 178.785156 243.953125 L 276.386719 243.953125 C 281.773438 243.953125 286.144531 248.320312 286.144531 253.703125 C 286.144531 259.085938 281.773438 263.453125 276.386719 263.453125 L 178.785156 263.453125 C 173.394531 263.453125 169.023438 259.085938 169.023438 253.703125 C 169.023438 248.320312 173.394531 243.953125 178.785156 243.953125 Z M 178.785156 282.953125 L 276.386719 282.953125 C 281.773438 282.953125 286.144531 287.316406 286.144531 292.703125 C 286.144531 298.085938 281.773438 302.449219 276.386719 302.449219 L 178.785156 302.449219 C 173.394531 302.449219 169.023438 298.085938 169.023438 292.703125 C 169.023438 287.316406 173.394531 282.953125 178.785156 282.953125 Z M 178.785156 321.949219 L 247.105469 321.949219 C 252.496094 321.949219 256.863281 326.316406 256.863281 331.699219 C 256.863281 337.085938 252.496094 341.449219 247.105469 341.449219 L 178.785156 341.449219 C 173.394531 341.449219 169.023438 337.085938 169.023438 331.699219 C 169.023438 326.316406 173.394531 321.949219 178.785156 321.949219 Z M 315.425781 409.695312 C 315.425781 415.082031 311.054688 419.445312 305.664062 419.445312 C 300.273438 419.445312 295.90625 415.082031 295.90625 409.695312 L 295.90625 403.984375 L 273.527344 426.339844 C 270.554688 429.308594 266.019531 430.042969 262.261719 428.167969 L 231.949219 413.027344 L 207.035156 462.804688 C 205.382812 466.109375 202 468.195312 198.304688 468.195312 C 194.609375 468.195312 191.230469 466.109375 189.574219 462.804688 L 170.054688 423.808594 C 167.644531 418.992188 169.601562 413.132812 174.421875 410.726562 C 179.246094 408.320312 185.105469 410.273438 187.515625 415.085938 L 198.304688 436.644531 L 218.855469 395.585938 C 221.265625 390.773438 227.128906 388.816406 231.949219 391.226562 L 264.699219 407.582031 L 282.101562 390.199219 L 276.386719 390.199219 C 270.996094 390.199219 266.625 385.832031 266.625 380.449219 C 266.625 375.0625 270.996094 370.699219 276.386719 370.699219 L 305.664062 370.699219 C 311.054688 370.699219 315.425781 375.0625 315.425781 380.449219 Z M 452.066406 458.445312 L 344.707031 458.445312 C 339.316406 458.445312 334.945312 454.078125 334.945312 448.695312 C 334.945312 443.3125 339.316406 438.945312 344.707031 438.945312 L 452.066406 438.945312 C 457.457031 438.945312 461.824219 443.3125 461.824219 448.695312 C 461.824219 454.078125 457.457031 458.445312 452.066406 458.445312 Z M 452.066406 419.445312 L 344.707031 419.445312 C 339.316406 419.445312 334.945312 415.082031 334.945312 409.695312 C 334.945312 404.3125 339.316406 399.949219 344.707031 399.949219 L 452.066406 399.949219 C 457.457031 399.949219 461.824219 404.3125 461.824219 409.695312 C 461.824219 415.082031 457.457031 419.445312 452.066406 419.445312 Z M 452.066406 380.449219 L 383.746094 380.449219 C 378.355469 380.449219 373.984375 376.082031 373.984375 370.699219 C 373.984375 365.3125 378.355469 360.949219 383.746094 360.949219 L 452.066406 360.949219 C 457.457031 360.949219 461.824219 365.3125 461.824219 370.699219 C 461.824219 376.082031 457.457031 380.449219 452.066406 380.449219 Z M 383.746094 341.449219 C 340.691406 341.449219 305.664062 306.460938 305.664062 263.453125 C 305.664062 220.445312 340.691406 185.457031 383.746094 185.457031 C 426.800781 185.457031 461.824219 220.445312 461.824219 263.453125 C 461.824219 306.460938 426.800781 341.449219 383.746094 341.449219 Z M 452.066406 165.957031 L 393.503906 165.957031 C 388.117188 165.957031 383.746094 161.589844 383.746094 156.207031 C 383.746094 150.820312 388.117188 146.457031 393.503906 146.457031 L 452.066406 146.457031 C 457.457031 146.457031 461.824219 150.820312 461.824219 156.207031 C 461.824219 161.589844 457.457031 165.957031 452.066406 165.957031 Z M 452.066406 126.957031 L 393.503906 126.957031 C 388.117188 126.957031 383.746094 122.59375 383.746094 117.207031 C 383.746094 111.824219 388.117188 107.457031 393.503906 107.457031 L 452.066406 107.457031 C 457.457031 107.457031 461.824219 111.824219 461.824219 117.207031 C 461.824219 122.59375 457.457031 126.957031 452.066406 126.957031 Z M 452.066406 87.957031 L 393.503906 87.957031 C 388.117188 87.957031 383.746094 83.59375 383.746094 78.210938 C 383.746094 72.824219 388.117188 68.460938 393.503906 68.460938 L 452.066406 68.460938 C 457.457031 68.460938 461.824219 72.824219 461.824219 78.210938 C 461.824219 83.59375 457.457031 87.957031 452.066406 87.957031 Z M 452.066406 48.960938 L 422.785156 48.960938 C 417.394531 48.960938 413.023438 44.59375 413.023438 39.210938 C 413.023438 33.828125 417.394531 29.460938 422.785156 29.460938 L 452.066406 29.460938 C 457.457031 29.460938 461.824219 33.828125 461.824219 39.210938 C 461.824219 44.59375 457.457031 48.960938 452.066406 48.960938 Z M 452.066406 48.960938 " fill-opacity="1" fill-rule="nonzero"/></g></svg>